<?xml version="1.0"?>
<svg>
    <symbol id="mission1" xmlns="http://www.w3.org/2000/svg" xmlns:xlink="http://www.w3.org/1999/xlink" xmlns:svgjs="http://svgjs.com/svgjs" version="1.1" viewBox="0 0 128 128" xml:space="preserve" class=""><g><path xmlns="http://www.w3.org/2000/svg" d="m92.928 47.95a1.753 1.753 0 0 0 1.238-.513l14.2-14.2a1.75 1.75 0 0 0 -1.142-2.985l-8.985-.49-.49-8.985a1.75 1.75 0 0 0 -2.985-1.142l-14.2 14.2a1.749 1.749 0 0 0 -.51 1.333l.036.661a39.21 39.21 0 0 0 -21.329-6.229 39.636 39.636 0 1 0 39.639 39.639 39.213 39.213 0 0 0 -6.225-21.328l.661.036c.029.002.064.003.092.003zm-29.257 21.289a4.939 4.939 0 1 1 -2.91-4.474l-3.238 3.235a1.75 1.75 0 0 0 2.477 2.477l3.237-3.238a4.87 4.87 0 0 1 .434 2zm-.337-7.048a8.432 8.432 0 1 0 2.475 2.475l5.15-5.15a15.658 15.658 0 1 1 -2.475-2.475zm7.641-7.641a19.146 19.146 0 1 0 2.475 2.475l4.715-4.715a25.813 25.813 0 1 1 -2.475-2.475zm23.925 14.689a36.136 36.136 0 1 1 -36.139-36.139 35.756 35.756 0 0 1 21.569 7.15l.256 4.687-2.417 2.416a29.316 29.316 0 1 0 2.475 2.475l2.416-2.417 4.687.256a35.76 35.76 0 0 1 7.153 21.572zm-10.862-25.277-.448-8.205 10.874-10.873.362 6.638a1.75 1.75 0 0 0 1.652 1.652l6.638.362-10.873 10.874z" data-original="#000000" style=""/></g></symbol>

    <symbol id="scale" xmlns="http://www.w3.org/2000/svg" xml:space="preserve" version="1.1" viewBox="0 0 317.19 313.14"
    xmlns:xlink="http://www.w3.org/1999/xlink">
    <!-- <defs>
    <style type="text/css">
    <![CDATA[
        .fil0 {fill:#62DED8}
    ]]>
    </style>
    </defs> -->
    <g id="Layer_x0020_1">
    <path class="fil0" d="M137.02 35.67l4.54 6.56 11.7 -18.74 0.1 32.52c-0.69,2.75 -72.14,42.26 -85.79,50.46 -23,13.83 -20.32,7.54 -20.32,47.14l0.1 69.26 9.16 -3.5 0.19 -86.41 97.49 51.87 -0.83 116.31 -92.08 -50.12c3.82,-4.09 46.62,-26.02 50.3,-30.13 -1.87,-3.78 -4.48,-1.7 -5.64,-5.32l-89.9 51.51 12.15 -17.54 -6.1 -2.87 -22.08 32.42 46.35 -3.44 0.7 -8.12 -28.08 5.04 26.54 -12.91c13.92,-7.84 4.11,-7.76 40.8,12.56 22.62,12.53 45.16,26.47 67.42,39.03 5.74,3.24 11.22,1.9 16.34,-0.97l81.4 -47.24 -7.19 -5.87 -56.54 32.25c-4.26,2.51 -19.01,9.44 -23.13,10.71l-0.27 -115.31 101.33 -57.48 1.46 108.7c-12.45,-6.2 -38.24,-22.93 -48.93,-27.85 -1.99,1.84 -3.53,2.97 -4.55,6.25 4.63,1.63 14.79,8.16 19.57,10.92l64.46 37.7 -19.36 -2.79 0.57 11.27 38.28 -1.94 -17.38 -35.44 -9.15 6.53 11.98 15.59 -27.52 -15.4c-0.67,-16.76 1.36,-113.06 -1.08,-119.42 -2.06,-5.37 -5.77,-7.1 -10.32,-9.68l-63.27 -36.55c-3.74,-2.19 -9.48,-5.97 -13.29,-7.53 -0.48,0.46 -0.52,0.44 -1.11,1.22l-3.09 5.79c5.07,1.78 45.28,25.82 53.85,30.64 5.28,2.97 20.37,12.36 24.78,15.51 -2.25,2.43 -97.41,58.98 -97.92,59 -5.83,0.25 -87.53,-48.23 -103.22,-55.08 -0.11,-0.06 -1.29,-0.8 -1.37,-0.85l-1.21 -1.02c-0.08,-0.07 -0.26,-0.24 -0.38,-0.37l96.34 -57.01 -0.43 56.86 8.11 0.33 0.08 -99.73 10.51 17.09 5.73 -4.75 -5.28 -8.73 -14.89 -26.61 -20.63 35.67z"/>
    </g>
    </symbol>

    <symbol id="mission" viewBox="0 0 64 64" xmlns="http://www.w3.org/2000/svg"><g><path d="m50.267 41.436c-.839-6.293-4.215-12.089-9.267-15.931v-4.321c0-7.479-2.913-14.51-8.201-19.799l-.092-.092c-.391-.391-1.023-.391-1.414 0l-.092.092c-5.288 5.288-8.201 12.32-8.201 19.799v4.321c-5.052 3.842-8.428 9.638-9.267 15.931l-.724 5.432c-.063.474.218.927.671 1.08.106.035.214.052.32.052.351 0 .687-.186.868-.504l1.023-1.791c1.492-2.61 4.157-4.318 7.109-4.639v.934c0 .552.448 1 1 1h1v3c0 .552.448 1 1 1h5v4h2v-4h5c.552 0 1-.448 1-1v-3h1c.552 0 1-.448 1-1v-.933c2.952.32 5.617 2.029 7.109 4.639l1.023 1.791c.182.317.517.503.868.503.106 0 .214-.017.32-.053.453-.153.734-.605.671-1.08zm-18.267-38.001c2.101 2.246 3.755 4.805 4.93 7.565h-9.86c1.175-2.76 2.829-5.319 4.93-7.565zm-16.425 39.316.14-1.051c.699-5.246 3.333-10.103 7.285-13.591v10.944c-2.863.256-5.519 1.587-7.425 3.698zm21.425 2.249h-10v-2h10zm2-4h-14v-19.816c0-2.824.452-5.578 1.313-8.184h11.375c.86 2.606 1.312 5.36 1.312 8.184zm2-1.946v-10.945c3.952 3.489 6.585 8.346 7.285 13.591l.14 1.051c-1.906-2.111-4.562-3.442-7.425-3.697z"/><path d="m32 19c-3.309 0-6 2.691-6 6s2.691 6 6 6 6-2.691 6-6-2.691-6-6-6zm0 10c-2.206 0-4-1.794-4-4s1.794-4 4-4 4 1.794 4 4-1.794 4-4 4z"/><path d="m36.832 48.445-1.664 1.109 1.063 1.595c.503.755.769 1.633.769 2.54 0 1.223-.476 2.373-1.341 3.238l-3.659 3.659-3.659-3.659c-.865-.865-1.341-2.015-1.341-3.238 0-.907.266-1.785.769-2.54l1.063-1.595-1.664-1.109-1.063 1.595c-.723 1.084-1.105 2.346-1.105 3.649 0 1.757.684 3.41 1.927 4.652l4.366 4.366c.195.195.451.293.707.293s.512-.098.707-.293l4.366-4.366c1.243-1.242 1.927-2.895 1.927-4.652 0-1.303-.382-2.565-1.105-3.649z"/></g></symbol>

    <symbol id="flexible" viewBox="0 0 512 512" xmlns="http://www.w3.org/2000/svg"><g id="Outline"><path d="m256 496a32.038 32.038 0 0 1 -32-32v-96a80.094 80.094 0 0 0 -80-80h-18.753l9.373 9.372a32 32 0 0 1 -45.258 45.257l-64-64a32.037 32.037 0 0 1 0-45.256l64-64a32 32 0 0 1 45.258 45.256l-9.373 9.374h18.746a143.952 143.952 0 0 1 80.007 24.326v-123.085l-9.373 9.373a32 32 0 1 1 -45.258-45.256l64-64a32.04 32.04 0 0 1 45.258 0l64 64a32 32 0 0 1 -45.258 45.257l-9.369-9.374v123.085a143.952 143.952 0 0 1 80.005-24.337h18.746l-9.373-9.373a32 32 0 0 1 45.258-45.257l64 64a32.036 32.036 0 0 1 0 45.255l-64 64a32 32 0 0 1 -45.258-45.256l9.373-9.373h-18.744a80.094 80.094 0 0 0 -80 80v96a32.038 32.038 0 0 1 -32.007 32.012zm-150.068-224.007h38.061a96.113 96.113 0 0 1 96.007 96.007v96a16 16 0 1 0 32 0v-96a96.113 96.113 0 0 1 96.006-96h38.061a8 8 0 0 1 5.658 13.658l-23.032 23.03a16 16 0 0 0 22.63 22.627l64-64a16.019 16.019 0 0 0 0-22.628l-64-64a16 16 0 1 0 -22.623 22.619l23.031 23.029a8 8 0 0 1 -5.658 13.657h-38.066a127.965 127.965 0 0 0 -82.822 30.493 8 8 0 0 1 -13.185-6.094v-158.461a8 8 0 0 1 13.658-5.658l23.03 23.03a16 16 0 1 0 22.629-22.629l-64-64a16.017 16.017 0 0 0 -22.63 0l-64 64a16 16 0 0 0 22.63 22.628l23.03-23.03a8 8 0 0 1 13.653 5.659v158.461a8 8 0 0 1 -13.184 6.094 127.965 127.965 0 0 0 -82.822-30.493h-38.062a8 8 0 0 1 -5.657-13.657l23.031-23.03a16 16 0 1 0 -22.63-22.628l-64 64a16.019 16.019 0 0 0 0 22.628l64 64a16 16 0 1 0 22.629-22.628l-23.03-23.029a8 8 0 0 1 5.657-13.658z"/></g></symbol>

    <symbol id="profitable1" viewBox="0 1 511 511.99938" xmlns="http://www.w3.org/2000/svg"><path d="m216.5 366c5.519531 0 10-4.480469 10-10s-4.480469-10-10-10-10 4.480469-10 10 4.480469 10 10 10zm0 0"/><path d="m3.429688 389.070312 120 120c3.90625 3.90625 10.234374 3.90625 14.140624 0l66-66c3.90625-3.90625 3.90625-10.234374 0-14.140624l-2.929687-2.929688h144.148437c12.660157 0 24.742188-4.746094 34.058594-13.394531l121.316406-113.699219c11.613282-10.785156 15.460938-27.917969 9.570313-42.628906-4.257813-10.648438-12.953125-18.796875-23.851563-22.355469-10.902343-3.566406-22.726562-2.121094-32.453124 3.957031-.0625.039063-26.933594 17.671875-26.933594 17.671875-.183594-54.207031-32.945313-112.011719-78.042969-138.035156 2.574219-2.957031 4.597656-6.457031 5.886719-10.375 5.160156-15.699219-3.417969-32.691406-19.140625-37.882813-.492188-.164062-.984375-.308593-1.476563-.460937l25.742188-46.242187c1.480468-2.660157 1.671875-5.851563.511718-8.664063-1.15625-2.816406-3.53125-4.953125-6.457031-5.800781-18.457031-5.367188-37.640625-8.089844-57.019531-8.089844-19.375 0-38.5625 2.722656-57.019531 8.085938-2.925781.851562-5.300781 2.984374-6.460938 5.800781-1.15625 2.816406-.96875 6.007812.515625 8.667969l25.742188 46.242187c-.5.15625-1 .304687-1.5.46875-15.699219 5.183594-24.273438 22.171875-19.113282 37.882813 1.289063 3.910156 3.328126 7.398437 5.910157 10.359374-45.769531 26.410157-78.074219 84.808594-78.074219 138.492188 0 1.464844.035156 2.910156.082031 4.34375-17.910156 4.886719-34.5625 13.789062-48.566406 26.050781l-30.390625 26.589844-4.054688-4.054687c-3.90625-3.90625-10.234374-3.90625-14.140624 0l-66 66c-3.90625 3.90625-3.90625 10.234374 0 14.140624zm253.902343-364.886718c12.8125-2.78125 25.9375-4.183594 39.167969-4.183594s26.355469 1.402344 39.171875 4.183594l-22.285156 40.027344c-11.234375-1.566407-22.546875-1.566407-33.769531 0zm6.6875 64.082031c20.519531-6.714844 42.890625-7.222656 64.933594-.007813 5.246094 1.730469 8.109375 7.402344 6.386719 12.636719-1.296875 3.941407-4.8125 6.617188-8.886719 6.855469-19.71875-6.269531-40.199219-6.28125-59.910156-.019531 0 0 0 0-.003907 0-4.109374-.257813-7.597656-2.945313-8.878906-6.832031-1.722656-5.242188 1.140625-10.914063 6.359375-12.632813zm5.53125 39.550781c17.339844-6.246094 35.304688-6.394531 52.6875-.421875 46.460938 15.976563 84.261719 73.667969 84.261719 128.605469 0 4.65625-.292969 9.09375-.871094 13.242188l-48.066406 31.535156c-7.441406-9.21875-18.71875-14.777344-31.0625-14.777344h-20v-11.71875c11.640625-4.128906 20-15.246094 20-28.28125 0-16.542969-13.457031-30-30-30-5.511719 0-10-4.484375-10-10s4.488281-10 10-10c3.542969 0 7.28125 1.808594 10.816406 5.226562 3.96875 3.839844 10.300782 3.734376 14.140625-.230468 3.839844-3.96875 3.734375-10.300782-.234375-14.140625-5.074218-4.914063-10.152344-7.691407-14.722656-9.207031v-11.648438c0-5.523438-4.476562-10-10-10s-10 4.476562-10 10v11.71875c-11.636719 4.128906-20 15.246094-20 28.28125 0 16.542969 13.457031 30 30 30 5.515625 0 10 4.484375 10 10s-4.484375 10-10 10c-4.273438 0-8.882812-2.6875-12.984375-7.566406-3.554687-4.226563-9.863281-4.773438-14.089844-1.21875-4.226562 3.554687-4.773437 9.863281-1.21875 14.089844 5.34375 6.359374 11.632813 10.789062 18.292969 13.023437v11.671875h-3.328125c-4.914063 0-7.121094-3.203125-10.582031-5.441406-21.128906-15.835938-47.300782-24.558594-73.699219-24.558594-4.128906 0-8.265625.214844-12.382813.632812 0-.210937-.007812-.417968-.007812-.632812 0-54.167969 37.257812-111.667969 83.050781-128.183594zm-138.363281 173.625c18.789062-16.453125 42.933594-25.441406 67.703125-25.441406 22.101563 0 44.011719 7.300781 61.691406 20.554688 2.550781 1.492187 9.652344 9.445312 22.585938 9.445312h43.332031c11.382812 0 20 9.253906 20 20 0 11.027344-8.972656 20-20 20h-70c-5.523438 0-10 4.476562-10 10s4.476562 10 10 10h70c22.054688 0 40-17.945312 40-40 0-2.292969-.203125-4.554688-.585938-6.78125l98.199219-64.429688c4.671875-2.886718 10.339844-3.5625 15.558594-1.859374 5.25 1.71875 9.441406 5.644531 11.492187 10.777343 2.886719 7.203125 1.074219 15.269531-4.644531 20.578125l-121.3125 113.695313c-5.570312 5.171875-12.820312 8.019531-20.417969 8.019531h-164.148437l-78.839844-78.84375zm-54.6875 28.699219 105.859375 105.859375-51.859375 51.859375-105.859375-105.859375zm0 0"/></symbol>

    <symbol id="profitable" version="1.1" xmlns="http://www.w3.org/2000/svg" xmlns:xlink="http://www.w3.org/1999/xlink" x="0px" y="0px"
	 viewBox="0 0 416 416" style="enable-background:new 0 0 416 416;" xml:space="preserve">

        <g>
            <rect x="120.038" y="279" width="19" height="137"/>
        </g>

        <g>
            <rect x="199.038" y="256" width="19" height="160"/>
        </g>
        <g>
            <rect x="42.038" y="365" width="18" height="51"/>
        </g>
        <g>
            <rect x="277.039" y="198" width="19" height="218"/>
        </g>
        <g>
            <rect x="356.039" y="146" width="18" height="270"/>
        </g>
        <g>
            <path d="M399.939,2.7c-2-1.7-4.5-2.7-7.2-2.7h-68.5c-5.5,0-10,4.5-10,10s4.5,10,10,10l44.2-0.1l-108.1,108.2l-37.9-38.1
                c-1.9-1.9-4.4-3-7.1-3.1c-2.7,0.1-5.2,1.2-7.1,3.1l-192,192.2c-4,3.8-4.1,10.2-0.3,14.2c3.8,4,10.2,4.1,14.2,0.3
                c0.1-0.1,0.2-0.2,0.3-0.2l185-185l37.9,37.8c1.9,1.8,4.4,2.8,7.1,2.8c2.6,0,5.2-1,7.1-2.8L382.838,34l-0.1,44.1
                c0,5.5,4.4,9.9,9.9,9.9h0.1c5.5,0.1,9.9-4.3,10-9.8c0,0,0,0,0-0.1l0.1-68.4C402.839,7.1,401.739,4.6,399.939,2.7z"/>
        </g>
    </symbol>


    <symbol version="1.1" id="tech1" xmlns="http://www.w3.org/2000/svg" xmlns:xlink="http://www.w3.org/1999/xlink" x="0px" y="0px"
	 viewBox="0 0 480 480" style="enable-background:new 0 0 480 480;" xml:space="preserve">
        <g>
            <g>
                <path d="M296,280h-8.8c-3.31,0.006-6.271-2.059-7.408-5.168c-0.976-2.56-2.024-5.064-3.152-7.544
                    c-1.402-3.016-0.762-6.587,1.6-8.928l6.272-6.28c9.311-9.393,9.294-24.541-0.04-33.912l-22.608-22.608
                    c-9.383-9.328-24.537-9.328-33.92,0l-6.272,6.264c-2.346,2.353-5.911,2.992-8.928,1.6c-2.48-1.128-4.984-2.176-7.552-3.2
                    c-3.125-1.129-5.204-4.101-5.192-7.424V184c0-13.255-10.745-24-24-24h-32c-13.255,0-24,10.745-24,24v8.8
                    c0.006,3.31-2.059,6.271-5.168,7.408c-2.56,0.976-5.064,2.024-7.544,3.152c-3.017,1.395-6.583,0.756-8.928-1.6l-6.28-6.272
                    c-9.382-9.322-24.53-9.322-33.912,0l-22.608,22.68c-9.328,9.383-9.328,24.537,0,33.92l6.264,6.272
                    c2.362,2.341,3.002,5.912,1.6,8.928c-1.128,2.48-2.176,4.984-3.16,7.552c-1.145,3.127-4.134,5.194-7.464,5.16H24
                    c-13.255,0-24,10.745-24,24v32c0,13.255,10.745,24,24,24h8.8c3.31-0.006,6.271,2.059,7.408,5.168
                    c0.976,2.56,2.024,5.064,3.152,7.544c1.402,3.016,0.762,6.587-1.6,8.928l-6.272,6.28c-9.322,9.382-9.322,24.53,0,33.912
                    l22.608,22.608c9.383,9.328,24.537,9.328,33.92,0l6.272-6.264c2.346-2.353,5.911-2.992,8.928-1.6
                    c2.48,1.128,4.984,2.176,7.552,3.2c3.141,1.116,5.238,4.091,5.232,7.424v8.8c0,13.255,10.745,24,24,24h32
                    c13.255,0,24-10.745,24-24v-8.8c-0.006-3.31,2.059-6.271,5.168-7.408c2.56-0.976,5.064-2.024,7.544-3.152
                    c3.017-1.395,6.583-0.756,8.928,1.6l6.28,6.272c9.395,9.307,24.539,9.289,33.912-0.04l22.608-22.608
                    c9.328-9.383,9.328-24.537,0-33.92l-6.264-6.272c-2.362-2.341-3.002-5.912-1.6-8.928c1.128-2.48,2.176-4.984,3.2-7.552
                    c1.129-3.125,4.101-5.204,7.424-5.192h8.8c13.255,0,24-10.745,24-24v-32C320,290.745,309.255,280,296,280z M304,336
                    c0,4.418-3.582,8-8,8h-8.8c-9.945,0.037-18.845,6.184-22.4,15.472c-0.848,2.24-1.765,4.445-2.752,6.616
                    c-4.113,9.08-2.205,19.756,4.8,26.848l6.256,6.264c3.126,3.122,3.129,8.188,0.006,11.314c-0.002,0.002-0.004,0.004-0.006,0.006
                    l-22.608,22.608c-3.124,3.123-8.188,3.123-11.312,0l-6.272-6.264c-7.089-7.011-17.769-8.92-26.848-4.8
                    c-2.168,0.984-4.376,1.904-6.6,2.752C190.183,428.37,184.04,437.262,184,447.2v8.8c0,4.418-3.582,8-8,8h-32c-4.418,0-8-3.582-8-8
                    v-8.8c-0.037-9.945-6.184-18.845-15.472-22.4c-2.24-0.848-4.445-1.765-6.616-2.752c-9.08-4.111-19.755-2.202-26.848,4.8
                    l-6.264,6.256c-3.122,3.126-8.188,3.129-11.314,0.006c-0.002-0.002-0.004-0.004-0.006-0.006L46.872,410.52
                    c-3.123-3.124-3.123-8.188,0-11.312l6.264-6.272c7.005-7.092,8.913-17.768,4.8-26.848c-0.984-2.168-1.904-4.376-2.752-6.6
                    C51.638,350.197,42.744,344.044,32.8,344H24c-4.418,0-8-3.582-8-8v-32c0-4.418,3.582-8,8-8h8.8
                    c9.945-0.037,18.845-6.184,22.4-15.472c0.848-2.24,1.765-4.445,2.752-6.616c4.113-9.08,2.204-19.756-4.8-26.848l-6.288-6.264
                    c-3.126-3.122-3.129-8.188-0.006-11.314c0.002-0.002,0.004-0.004,0.006-0.006l22.608-22.608c3.124-3.123,8.188-3.123,11.312,0
                    l6.272,6.264c7.089,7.011,17.769,8.92,26.848,4.8c2.168-0.984,4.376-1.904,6.6-2.752c9.294-3.543,15.451-12.438,15.496-22.384V184
                    c0-4.418,3.582-8,8-8h32c4.418,0,8,3.582,8,8v8.8c0.037,9.945,6.184,18.845,15.472,22.4c2.24,0.848,4.445,1.765,6.616,2.752
                    c9.079,4.12,19.759,2.211,26.848-4.8l6.264-6.256c3.136-3.102,8.184-3.102,11.32,0l22.608,22.608
                    c3.123,3.124,3.123,8.188,0,11.312l-6.264,6.272c-7.004,7.092-8.913,17.768-4.8,26.848c0.984,2.168,1.904,4.376,2.752,6.6
                    c3.554,9.281,12.446,15.424,22.384,15.464h8.8c4.418,0,8,3.582,8,8V336z"/>
            </g>
        </g>
        <g>
            <g>
                <path d="M231.84,316.8c-0.08-1.92-0.216-3.832-0.448-5.736c-0.256-2.048-0.56-4.08-0.984-6.072c-0.28-1.304-0.648-2.592-1-3.888
                    c-0.448-1.648-0.952-3.272-1.512-4.872c-0.392-1.112-0.8-2.216-1.216-3.312c-1.03-2.562-2.208-5.063-3.528-7.488
                    c-0.104-0.184-0.168-0.384-0.272-0.568c-2.081-3.704-4.491-7.215-7.2-10.488c-0.232-0.288-0.496-0.56-0.736-0.84
                    c-1.104-1.304-2.24-2.568-3.432-3.776c-0.624-0.648-1.28-1.256-1.936-1.88c-0.8-0.744-1.6-1.48-2.4-2.184
                    c-0.971-0.843-1.96-1.659-2.968-2.448l-1.312-0.976C190.517,253,175.466,247.992,160,248c-0.8,0-1.6,0.12-2.4,0.152
                    c-1.704,0.048-3.416,0.144-5.136,0.32c-0.904,0.096-1.816,0.2-2.72,0.328c-2.608,0.343-5.196,0.827-7.752,1.448
                    c-38.521,9.954-61.679,49.252-51.725,87.773c6.56,25.384,26.392,45.2,51.781,51.739c0.128,0,0.264,0.04,0.4,0.072
                    c2.763,0.689,5.562,1.224,8.384,1.6c1.864,0.232,3.728,0.28,5.6,0.368c1.248,0.064,2.4,0.248,3.704,0.248
                    c2.28,0,4.648-0.152,7.064-0.392c0.256,0,0.512-0.072,0.8-0.104c1.944-0.216,3.912-0.504,5.92-0.904
                    c0.8-0.152,1.544-0.352,2.312-0.528c1.408-0.328,2.808-0.672,4.248-1.096c1.12-0.336,2.208-0.728,3.304-1.112
                    c1.096-0.384,2.232-0.8,3.368-1.232c1.136-0.432,2.088-0.928,3.12-1.408c1.344-0.616,2.68-1.224,4-1.944h0.048
                    c7.466-3.997,14.362-8.977,20.504-14.808c1.659-1.548,3.102-3.314,4.288-5.248c6.244-10.01,10.346-21.205,12.048-32.88
                    c0.224-1.544,0.424-3.088,0.544-4.664c0.112-1.448,0.192-2.888,0.224-4.328c0-0.456,0.064-0.888,0.064-1.344
                    C232,318.928,231.888,317.888,231.84,316.8z M215.896,322.04c0,0.664-0.056,1.328-0.096,1.984
                    c-0.144,1.936-0.392,3.872-0.72,5.816c-2.99,16.633-13.317,31.033-28.112,39.2c-0.992,0.52-1.968,1.008-2.944,1.456l-0.664,0.32
                    c-4.648,2.11-9.554,3.595-14.592,4.416c-0.352,0.056-0.712,0.12-1.072,0.168c-1,0.144-1.984,0.264-2.96,0.352
                    c-1.288,0.112-2.584,0.176-3.904,0.2c-0.56,0-1.112,0-1.672,0c-1.893-0.022-3.783-0.139-5.664-0.352l-0.96-0.112
                    c-2.2-0.288-4.382-0.699-6.536-1.232c-29.962-7.669-48.034-38.175-40.366-68.137c5.067-19.798,20.517-35.264,40.31-40.351l0-0.008
                    c4.596-1.159,9.316-1.751,14.056-1.76c2.287,0.013,4.572,0.168,6.84,0.464c0.608,0.072,1.208,0.184,1.808,0.272
                    c1.728,0.272,3.44,0.616,5.128,1.048c0.552,0.144,1.104,0.272,1.648,0.424c4.254,1.228,8.349,2.952,12.2,5.136
                    c0.616,0.36,1.216,0.736,1.824,1.112c1.264,0.8,2.488,1.6,3.696,2.512c0.648,0.472,1.304,0.936,1.928,1.44
                    c1.57,1.254,3.073,2.589,4.504,4c0.568,0.576,1.088,1.208,1.64,1.808c0.92,1,1.816,2.024,2.672,3.104
                    c0.592,0.744,1.16,1.512,1.72,2.288c0.8,1.152,1.6,2.352,2.32,3.568c0.4,0.664,0.8,1.312,1.208,1.992
                    c1.032,1.899,1.951,3.857,2.752,5.864c0.32,0.8,0.592,1.6,0.88,2.4c0.52,1.472,0.968,2.96,1.36,4.464
                    c0.2,0.8,0.424,1.512,0.592,2.288c0.467,2.162,0.806,4.35,1.016,6.552c0.048,0.584,0.048,1.176,0.088,1.76
                    C215.936,318.336,215.968,320.184,215.896,322.04z"/>
            </g>
        </g>
        <g>
            <g>
                <path d="M456,168h-25.16c-3.355,0.034-6.356-2.079-7.456-5.248c-2.481-7.431-5.483-14.679-8.984-21.688
                    c-1.486-3.027-0.867-6.666,1.536-9.032l17.84-17.864c9.364-9.371,9.364-24.557,0-33.928L399.76,46.28
                    c-9.371-9.364-24.557-9.364-33.928,0L348,64.104c-2.363,2.402-5.997,3.024-9.024,1.544c-7.01-3.519-14.26-6.537-21.696-9.032
                    c-3.182-1.089-5.31-4.093-5.28-7.456V24c0-13.255-10.745-24-24-24h-48c-13.255,0-24,10.745-24,24v25.16
                    c0.034,3.355-2.078,6.356-5.248,7.456c-7.432,2.494-14.68,5.51-21.688,9.024c-3.027,1.491-6.668,0.872-9.032-1.536l-17.864-17.84
                    c-9.382-9.337-24.546-9.337-33.928,0L94.288,80.216c-9.369,9.372-9.369,24.564,0,33.936l26.232,26.28
                    c3.173,3.074,8.238,2.994,11.312-0.18c2.999-3.096,3.006-8.012,0.016-11.116L105.6,102.864c-3.123-3.124-3.123-8.188,0-11.312
                    L139.552,57.6c3.124-3.123,8.188-3.123,11.312,0l17.872,17.84c7.231,7.274,18.311,9.092,27.488,4.512
                    c6.337-3.173,12.889-5.897,19.608-8.152c9.698-3.283,16.21-12.401,16.168-22.64V24c0-4.418,3.582-8,8-8h48c4.418,0,8,3.582,8,8
                    v25.16c-0.041,10.237,6.471,19.352,16.168,22.632c6.722,2.256,13.277,4.982,19.616,8.16c9.179,4.556,20.244,2.736,27.48-4.52
                    L377.136,57.6c3.124-3.123,8.188-3.123,11.312,0L422.4,91.56c3.118,3.123,3.118,8.181,0,11.304l-17.84,17.872
                    c-7.267,7.235-9.084,18.31-4.512,27.488c3.173,6.337,5.897,12.889,8.152,19.608c3.281,9.7,12.4,16.212,22.64,16.168H456
                    c4.418,0,8,3.582,8,8v48c0,4.418-3.582,8-8,8h-25.16c-10.237-0.041-19.352,6.471-22.632,16.168
                    c-2.255,6.722-4.982,13.277-8.16,19.616c-4.564,9.178-2.743,20.247,4.52,27.48l17.84,17.872c3.123,3.124,3.123,8.188,0,11.312
                    L388.44,374.4c-3.123,3.118-8.181,3.118-11.304,0l-26.288-26.232c-3.074-3.174-8.139-3.254-11.312-0.18
                    c-3.174,3.074-3.254,8.139-0.18,11.312c0.064,0.066,0.13,0.132,0.196,0.196l26.28,26.232c9.371,9.364,24.557,9.364,33.928,0
                    l33.952-33.944c9.369-9.372,9.369-24.564,0-33.936L415.896,300c-2.4-2.364-3.021-5.997-1.544-9.024
                    c3.519-7.01,6.537-14.26,9.032-21.696c1.089-3.182,4.093-5.31,7.456-5.28H456c13.255,0,24-10.745,24-24v-48
                    C480,178.745,469.255,168,456,168z"/>
            </g>
        </g>
        <g>
            <g>
                <path d="M337.536,142.464c-40.638-40.553-106.434-40.553-147.072,0c-3.069,3.178-2.981,8.243,0.197,11.312
                    c3.1,2.994,8.015,2.994,11.115,0c34.135-34.596,89.852-34.969,124.448-0.834c34.596,34.135,34.969,89.852,0.834,124.448
                    c-0.276,0.28-0.554,0.558-0.834,0.834c-3.178,3.07-3.266,8.134-0.196,11.312c3.07,3.178,8.134,3.266,11.312,0.196
                    c0.066-0.064,0.132-0.13,0.196-0.196C378.089,248.898,378.089,183.102,337.536,142.464z"/>
            </g>
        </g>
    </symbol>

    <symbol id="tech" version="1.1" xmlns="http://www.w3.org/2000/svg" xmlns:xlink="http://www.w3.org/1999/xlink" x="0px" y="0px"
	 viewBox="0 0 512.157 512.157" style="enable-background:new 0 0 512.157 512.157;" xml:space="preserve">
        <g transform="translate(-1 -1)">
            <g>
                <g>
                    <path d="M470.991,248.578c13.333-72.417-8.433-171.963-87.742-219.4C333.158,1.078,274.075-6.357,218.583,8.457
                        C141.716,29.012,85.216,84.17,67.449,156.003c-3.961,14.57-5.64,29.666-4.975,44.75c0.851,9.359,2.578,18.618,5.159,27.654
                        c3.473,11.5,5.193,23.458,5.1,35.471c-0.358,14.3-10.208,29.137-18.908,42.229c-9.484,14.287-17.675,26.625-12.925,38.004
                        c4.508,7.713,12.442,12.795,21.333,13.667c0.512,0.092,1.03,0.145,1.55,0.158c2.376-0.291,4.758,0.497,6.491,2.149
                        s2.635,3.993,2.459,6.38c0,17.733,0.442,26.883,7.767,31.079c-0.639,1.334-1.085,2.753-1.325,4.212
                        c-0.736,5.006,1.067,10.049,4.808,13.454c3.72,3.603,8.433,6.009,13.533,6.908c0.358,0.083,0.7,0.146,1.033,0.225
                        c0.202,1.269,0.291,2.553,0.267,3.838c-0.061,3.173-0.286,6.342-0.675,9.492c-1.417,13.65-3.358,32.346,23.95,41.271
                        c5.481,1.532,11.162,2.223,16.85,2.05c25.858-1.148,51.413-6.047,75.863-14.542c7.059,12.31,11.315,26.026,12.462,40.171
                        c-0.001,2.263,0.898,4.434,2.499,6.035c1.6,1.6,3.771,2.499,6.035,2.499h213.333c3.649-0.045,6.86-2.422,7.967-5.9
                        c1.122-3.526-0.1-7.376-3.05-9.609c-8.829-6.704-38.068-77.335-38.967-102.705c2.577-5.851,6.029-12.421,10.117-20.053
                        C447.459,335.662,462.94,292.958,470.991,248.578z M397.953,394.086c0.217,20.408,18.615,74.332,34.421,102.005H243.61
                        c-2.125-13.075-6.361-25.717-12.543-37.432c24.724-9.69,46.503-22.149,56.957-35.822c2.845-3.747,2.123-9.09-1.616-11.946
                        c-3.738-2.857-9.083-2.15-11.951,1.579c-24.15,31.6-124.633,55.592-147.067,48.254c-14.208-4.646-13.642-10.1-12.275-23.283
                        c0.453-3.737,0.709-7.495,0.767-11.258c0-14.379-5.8-18.671-14.517-20.692c-1.645-0.235-3.216-0.842-4.592-1.775
                        c1.675-1.601,3.576-2.947,5.642-3.996c3.562-1.75,5.448-5.724,4.55-9.59s-4.34-6.603-8.309-6.606c-3.083,0-6.508,0-8.308-0.225
                        c-0.542-5.594-0.726-11.216-0.55-16.833c0.167-6.729-2.391-13.24-7.093-18.056c-4.702-4.816-11.151-7.529-17.882-7.523
                        c-6.15-1.296-8.017-2.963-8.175-3.35c-1.242-2.962,6.983-15.337,11.4-21.987c9.475-14.267,21.267-32.025,21.75-51.237
                        c0.239-10.661-0.947-21.306-3.527-31.653c9.305-8.188,20.286-14.244,32.177-17.743c4.237-0.74,8.591-0.435,12.683,0.887
                        c4.543,1.252,9.24-1.416,10.492-5.958c1.252-4.543-1.416-9.24-5.958-10.492c-6.72-2.068-13.844-2.458-20.75-1.138
                        c-12.059,3.072-23.329,8.669-33.065,16.421c-1.166-4.971-1.955-10.023-2.36-15.113c-0.578-13.298,0.949-26.604,4.525-39.425
                        c16.5-66.688,67.15-115.95,138.983-135.159c51.027-13.685,105.38-6.908,151.484,18.888
                        c72.325,43.254,92.025,134.854,79.725,201.658c-7.669,42.662-22.567,83.702-44.05,121.35
                        c-4.692,8.754-8.742,16.313-11.667,23.308C397.996,391.396,397.811,392.748,397.953,394.086z"/>
                    <path d="M414.89,268.074c1.221-13.163-7.79-25.088-20.787-27.508l-16.341-22.651c1.002-1.848,1.77-3.814,2.286-5.853
                        l15.825-6.328c7.309,8.32,19.147,10.982,29.313,6.591c10.166-4.391,16.344-14.834,15.298-25.859s-9.08-20.118-19.891-22.518
                        l-12.82-25.573c8.993-9.163,9.77-23.584,1.812-33.659c-7.958-10.076-22.166-12.662-33.163-6.036l-14.296-11.869
                        c1.082-2.828,1.648-5.826,1.672-8.854c0.023-10.455-6.328-19.869-16.031-23.762c-9.703-3.894-20.8-1.481-28.01,6.09
                        l-25.299-6.324c-3.03-10.974-12.982-18.6-24.367-18.669c-11.385-0.069-21.429,7.435-24.592,18.371l-33.81,6.762
                        c-8.819-9.51-23.375-10.877-33.81-3.174c-10.435,7.702-13.418,22.014-6.93,33.244l-16.567,22.063
                        c-11.872,2.146-20.62,12.311-20.973,24.37c-0.353,12.059,7.786,22.718,19.512,25.555l13.699,33.819
                        c-7.516,7.378-9.735,18.612-5.589,28.295c4.146,9.682,13.808,15.829,24.334,15.481s19.762-7.118,23.26-17.053h45.813
                        c3.825,11.766,15.761,18.89,27.932,16.672l28.329,43.091c-7.268,8.058-8.649,19.828-3.445,29.35
                        c5.204,9.521,15.858,14.714,26.564,12.947c10.706-1.767,19.126-10.107,20.995-20.796l21.147-16.903
                        c4.024,2.537,8.681,3.891,13.438,3.907C402.619,291.302,413.67,281.238,414.89,268.074z M414.999,180.357
                        c4.268-0.009,7.886,3.137,8.47,7.364c0.585,4.227-2.044,8.237-6.153,9.387s-8.437-0.913-10.132-4.83
                        c-0.029-0.078-0.013-0.159-0.044-0.237l-0.054-0.083c-0.397-0.975-0.608-2.015-0.621-3.068
                        C406.471,184.18,410.288,180.362,414.999,180.357z M381.045,118.889c0.819-3.961,4.31-6.802,8.355-6.799
                        c4.713,0,8.533,3.82,8.533,8.533s-3.82,8.533-8.533,8.533c-1.056-0.013-2.099-0.224-3.077-0.622l-0.073-0.048
                        c-0.075-0.03-0.154-0.014-0.231-0.043C382.303,126.842,380.225,122.851,381.045,118.889z M372.556,139.75L372.556,139.75
                        l-15.769,39.428l-27.643-22.114c3.75-3.199,6.49-7.418,7.89-12.145l33.81-6.762C371.381,138.726,371.968,139.232,372.556,139.75z
                        M363.471,208.263c-1.149,4.104-5.152,6.73-9.375,6.148c-4.222-0.582-7.367-4.191-7.363-8.454
                        c0.005-4.711,3.822-8.529,8.533-8.533c1.056,0.013,2.099,0.224,3.077,0.622l0.073,0.048c0.077,0.031,0.158,0.018,0.235,0.046
                        C362.562,199.836,364.62,204.158,363.471,208.263z M338.199,69.424c4.713,0,8.533,3.82,8.533,8.533s-3.821,8.533-8.533,8.533
                        s-8.533-3.82-8.533-8.533C329.671,73.246,333.488,69.429,338.199,69.424z M293.293,71.26l19.491,4.873
                        c-0.045,0.614-0.184,1.2-0.184,1.825c0.015,14.132,11.468,25.585,25.6,25.6c4.576-0.024,9.061-1.287,12.976-3.656l14.297,11.869
                        c-1.082,2.828-1.649,5.826-1.673,8.854c0,0.516,0.123,0.999,0.152,1.508l-27.792,5.558c-3.485-8.112-10.903-13.857-19.629-15.202
                        l-31.244-31.243C288.756,78.646,291.511,75.211,293.293,71.26z M321.133,137.691c0,4.713-3.82,8.533-8.533,8.533
                        c-4.711-0.005-8.529-3.822-8.533-8.533c0-4.713,3.82-8.533,8.533-8.533S321.133,132.978,321.133,137.691z M269.933,52.357
                        c4.713,0,8.533,3.82,8.533,8.533s-3.82,8.533-8.533,8.533s-8.533-3.82-8.533-8.533C261.404,56.18,265.222,52.362,269.933,52.357z
                        M271.624,91.72l25.62,25.617c-3.983,3.009-6.998,7.118-8.672,11.82H268.36c-2.015-5.65-5.953-10.411-11.125-13.451
                        L271.624,91.72z M218.581,76.45l27.792-5.558c2.181,5.03,5.917,9.23,10.658,11.983l-15.49,25.817L214.763,91.51
                        c2.58-4.051,3.956-8.751,3.97-13.553C218.733,77.441,218.61,76.958,218.581,76.45z M252.866,137.691
                        c0,4.713-3.82,8.533-8.533,8.533c-4.711-0.005-8.529-3.822-8.533-8.533c0-4.713,3.82-8.533,8.533-8.533
                        S252.866,132.978,252.866,137.691z M193.133,69.424c4.713,0,8.533,3.82,8.533,8.533s-3.82,8.533-8.533,8.533
                        s-8.533-3.82-8.533-8.533C184.604,73.246,188.422,69.429,193.133,69.424z M183.845,101.75c5.199,2.144,10.987,2.389,16.349,0.693
                        l26.347,16.905c-2.804,2.747-4.938,6.104-6.235,9.809h-37.279c-1.863-5.282-5.405-9.809-10.085-12.886L183.845,101.75z
                        M158.999,146.224c-4.713,0-8.533-3.82-8.533-8.533c0.005-4.711,3.822-8.529,8.533-8.533c4.713,0,8.533,3.82,8.533,8.533
                        S163.712,146.224,158.999,146.224z M184.599,223.024c-4.713,0-8.533-3.821-8.533-8.533c0-4.713,3.82-8.533,8.533-8.533
                        s8.533,3.821,8.533,8.533C193.128,219.202,189.31,223.019,184.599,223.024z M189.452,189.381
                        c-1.598-0.318-3.224-0.482-4.853-0.491c-0.845,0-1.643,0.169-2.467,0.25l-11.628-28.707c5.839-2.959,10.32-8.045,12.522-14.209
                        h37.279c1.537,4.298,4.198,8.105,7.706,11.024L189.452,189.381z M254.439,205.957h-45.813c-0.911-2.556-2.226-4.95-3.894-7.09
                        l41.909-34.924l14.271,32.008C257.996,198.729,255.778,202.158,254.439,205.957z M268.36,146.224h20.213
                        c2.015,5.65,5.953,10.411,11.125,13.451l-17.742,29.569c-1.154-0.198-2.319-0.316-3.489-0.353c-0.661,0-1.282,0.146-1.931,0.195
                        l-14.649-32.855C264.803,153.452,267.021,150.023,268.36,146.224z M278.466,223.024c-4.713,0-8.533-3.821-8.533-8.533
                        c0-4.713,3.821-8.533,8.533-8.533c4.713,0,8.533,3.821,8.533,8.533C286.995,219.202,283.177,223.019,278.466,223.024z
                        M314.891,167.52l23.831,19.065c-3.749,3.2-6.49,7.419-7.89,12.145l-28.806,5.761c-1.187-2.727-2.839-5.226-4.883-7.386
                        L314.891,167.52z M329.666,308.357c-4.713,0-8.533-3.82-8.533-8.533s3.82-8.533,8.533-8.533s8.533,3.82,8.533,8.533
                        C338.195,304.535,334.377,308.353,329.666,308.357z M363.799,265.691c0.031,2.851,0.544,5.676,1.517,8.356l-14.405,11.515
                        c-5.386-8.413-15.323-12.737-25.15-10.943l-28.329-43.091c2.531-2.822,4.399-6.173,5.468-9.809l28.806-5.761
                        c5.492,12.971,20.439,19.057,33.429,13.611l10.527,14.592C368.288,248.839,363.814,256.958,363.799,265.691z M372.11,186.831
                        l16.282-40.709c0.341,0.014,0.662,0.102,1.007,0.102c1.028-0.04,2.053-0.144,3.069-0.31l10.332,20.611
                        c-8.226,4.438-13.368,13.019-13.401,22.366c0,0.346,0.089,0.667,0.102,1.01l-11.473,4.587
                        C376.561,191.583,374.552,188.984,372.11,186.831z M389.399,274.224c-4.713,0-8.533-3.82-8.533-8.533
                        c0.005-4.711,3.822-8.529,8.533-8.533c4.713,0,8.533,3.82,8.533,8.533S394.112,274.224,389.399,274.224z"/>
                </g>
            </g>
        </g>
        </symbol>

    <symbol id="hydrogen1" enable-background="new 0 0 507.117 507.117" viewBox="0 0 507.117 507.117" xmlns="http://www.w3.org/2000/svg"><g><path d="m449.071 131.157c-39.229-21.252-96.349-32.486-165.182-32.486-70.281 0-136.471 11.419-186.376 32.155-6.13 2.547-11.924 5.208-17.396 7.967-19.961-17.972-45.718-27.865-72.617-27.865-4.143 0-7.5 3.358-7.5 7.5v39.985c0 16.804 6.139 32.972 17.286 45.526.151.17.312.326.475.479-.573 3.164-.877 6.358-.877 9.578 0 6.168 1.073 12.242 3.159 18.187-.176.149-.347.305-.512.473-12.594 12.888-19.531 29.911-19.531 47.935v39.984c0 4.142 3.357 7.5 7.5 7.5 30.534 0 59.522-12.814 80.085-35.268 3.21 1.485 6.516 2.94 9.929 4.358 27.719 11.517 60.466 20.155 96.143 25.564l10.249 42.04c6.268 25.717 29.134 43.678 55.603 43.678h21.106c31.558 0 57.232-25.674 57.232-57.232v-24.381c28.883-2.811 54.766-7.997 77.33-15.525 3.929-1.31 6.052-5.559 4.74-9.488-1.311-3.929-5.552-6.052-9.488-4.741-34.287 11.439-76.861 17.24-126.54 17.24-68.352 0-132.497-11.012-180.621-31.007-29.783-12.375-51.227-27.515-62.445-43.587 13.535 6.296 32.864 11.821 58.162 16.648 49.464 9.438 115.131 14.635 184.904 14.635 68.191 0 124.7-5.091 163.42-14.724 15.77-3.923 28.434-8.538 37.988-13.812-9.067 18.12-26.987 33.88-52.625 45.819-3.755 1.748-5.382 6.21-3.633 9.965 1.748 3.754 6.209 5.381 9.965 3.633 43.923-20.453 68.112-51.669 68.112-87.895.001-33.14-20.613-62.559-58.045-82.838zm-126.223 196.897v23.16c0 23.287-18.945 42.232-42.232 42.232h-21.106c-19.532 0-36.404-13.253-41.03-32.23l-8.851-36.308c23.83 2.904 48.774 4.413 74.262 4.413 13.49-.001 26.474-.431 38.957-1.267zm-307.848-169.641v-32.187c18.693 1.492 36.432 8.555 51.062 20.313-20.308 12.264-34.667 26.153-42.433 41.022-5.599-8.629-8.629-18.729-8.629-29.148zm58.549 127.335c-15.723 15.674-36.444 25.256-58.549 27.028v-32.185c0-12.557 4.319-24.486 12.23-34.063 9.386 14.305 25.026 27.582 46.319 39.22zm370.14-44.019c-37.553 9.342-92.811 14.28-159.799 14.28-68.859 0-133.527-5.103-182.093-14.369-57.353-10.943-69.913-23.666-69.913-27.645 0-5.468 21.602-23.601 117.58-34.811 4.114-.48 7.06-4.205 6.579-8.319-.48-4.115-4.218-7.06-8.319-6.579-37.726 4.406-69.38 10.637-91.542 18.019-5.785 1.927-10.903 3.93-15.393 6.013 11.208-16.092 32.664-31.252 62.48-43.64 48.123-19.995 112.27-31.007 180.621-31.007 66.346 0 120.994 10.607 158.037 30.675 21.038 11.398 35.709 25.383 43.544 41.265-9.574-5.313-22.298-9.959-38.162-13.905-38.72-9.633-95.229-14.724-163.42-14.724-37.909 0-74.474 1.517-108.678 4.509-4.127.361-7.179 3.999-6.818 8.125.362 4.126 4.004 7.181 8.125 6.817 33.771-2.954 69.896-4.452 107.371-4.452 66.988 0 122.246 4.938 159.799 14.28 23.412 5.825 48.429 16.169 48.429 27.733 0 11.566-25.016 21.91-48.428 27.735z"/><path d="m245.002 367.269c4.143 0 7.5-3.358 7.5-7.5v-13.774c0-4.142-3.357-7.5-7.5-7.5s-7.5 3.358-7.5 7.5v13.774c0 4.142 3.357 7.5 7.5 7.5z"/><path d="m271.51 367.269c4.143 0 7.5-3.358 7.5-7.5v-13.774c0-4.142-3.357-7.5-7.5-7.5s-7.5 3.358-7.5 7.5v13.774c0 4.142 3.357 7.5 7.5 7.5z"/><path d="m298.018 367.269c4.143 0 7.5-3.358 7.5-7.5v-13.774c0-4.142-3.357-7.5-7.5-7.5s-7.5 3.358-7.5 7.5v13.774c0 4.142 3.357 7.5 7.5 7.5z"/></g></symbol>

    <symbol id="hydrogen" enable-background="new 0 0 512 512" viewBox="0 0 512 512" xmlns="http://www.w3.org/2000/svg"><g><circle cx="363" cy="457" r="10"/><path d="m384.803 429.456c4.906 2.535 10.94.609 13.473-4.299 11.595-22.466 17.724-47.762 17.724-73.157 0-77.401-55.074-141.871-127.878-156.758-.067-.014-.258-.05-.287-.055-7.182-1.454-14.492-2.405-21.835-2.863v-62.324c0-11.028 8.972-20 20-20 55.141 0 100-44.859 100-100 0-5.522-4.478-10-10-10h-30c-39.533 0-73.78 23.06-90 56.435-16.22-33.375-50.467-56.435-90-56.435h-30c-5.522 0-10 4.478-10 10 0 55.141 44.859 100 100 100 11.028 0 20 8.972 20 20v62.325c-85.072 5.296-150 76.085-150 159.675 0 88.225 71.775 160 160 160 26.438 0 52.658-6.616 75.826-19.134 4.858-2.625 6.669-8.692 4.044-13.552-2.626-4.859-8.692-6.668-13.552-4.044-18.472 9.981-39.172 15.654-60.216 16.579 2.78-1.459 4.772-4.17 5.249-7.382 2.363-15.918 9.08-21.771 19.247-30.63 6.79-5.917 14.485-12.622 22.055-23.288 8.312-11.703 11.517-25.941 9.024-40.096l-3.76-21.32c-.959-5.438-6.146-9.071-11.581-8.112l-18.807 3.311c-10.939 1.932-21.854-2.414-28.478-11.338-13.522-18.238-37.137-24.627-57.894-16.312-.061-.039-.12-.078-.18-.117-7.468-4.932-11.722-11.986-11.977-19.865-.167-5.156 1.373-10.263 4.268-14.706.999 1.813 2.641 3.548 5.447 4.49 3.504 1.177 7.329.313 9.984-2.148 4.286-3.976 3.258-8.837 2.484-11.915-.315-4.102-3.104-9.226.838-14.859 1.785-2.55 4.457-4.252 7.516-4.793l12.874-2.262c13.729-2.432 44.974-34.604 61.515-54.337 19.712 4.918 38.053 14.086 53.892 26.887-25.631 15.036-24.856 14.169-26.464 15.775-5.896 5.881-9.357 14.038-9.357 22.379v12.68c0 17.452 14.278 31.65 31.73 31.65 6.424 0 11.649 5.222 11.649 11.64 0 4.825 3.445 8.962 8.191 9.835l36.404 6.694c-.258 21.913-5.45 42.858-15.471 62.274-2.529 4.908-.604 10.94 4.303 13.472zm-158.803-339.456c-40.726 0-74.44-30.592-79.378-70h19.378c42.531 0 77.418 33.359 79.863 75.289-5.855-3.363-12.639-5.289-19.863-5.289zm120-70.01h19.378c-4.938 39.408-38.652 70.01-79.378 70.01-7.224 0-14.008 1.926-19.863 5.289 2.445-41.93 37.332-75.299 79.863-75.299zm-107.01 344.92c11.17 15.05 29.574 22.373 48.013 19.118l8.955-1.576 2.023 11.473c1.557 8.842-.444 17.736-5.637 25.048-6.193 8.728-12.646 14.35-18.885 19.786-6.788 5.915-13.72 11.954-18.851 21.131-6.82-9.013-11.384-11.004-14.334-13.104-.259-.503-.991-2.294-1.967-7.818-1.843-10.479-7.659-19.607-16.371-25.698l-6.772-4.744c9.339-13.981 8.919-32.295-1.134-45.844l-6.294-8.484c11.538-3.181 23.915.816 31.254 10.712zm-41.02 9.689c5.09 6.859 5.217 16.175.324 23.169l-5.24 7.471c-3.172 4.522-2.075 10.763 2.449 13.933l14.967 10.484c4.334 3.03 7.226 7.567 8.143 12.784 2.457 13.907 5.589 17.877 12.134 22.003 2.126 1.34 4.323 2.726 8.062 7.709l10.191 16.179c1.012 1.607 2.437 2.834 4.066 3.633-75.847-1.57-137.066-63.749-137.066-139.964 0-9.976 1.079-19.919 3.182-29.627 3.19 4.273 7.489 7.805 12.67 10.074l51.669 22.673zm26.643-123.731-12.543 2.204c-8.326 1.471-15.582 6.094-20.43 13.02-2.376 3.394-4.03 7.144-4.93 11.063-.952.428-1.875.97-2.749 1.634-12.344 9.353-19.428 23.767-18.948 38.559.092 2.82.461 5.592 1.092 8.289l-26.223-11.507c-5.416-2.372-8.26-8.347-6.472-13.605 1.957-5.767 2.263-11.918.949-17.756 24.981-43.753 71.214-70.769 121.641-70.769 3.591 0 7.185.14 10.767.415-17.538 19.56-36.555 36.308-42.154 38.453zm115.117 54.672c-6.424 0-11.73-5.227-11.73-11.65v-12.68c0-2.7 1.041-5.345 2.746-7.411l28.309-16.467c19.458 21.161 31.835 47.512 35.663 75.811l-24.51-4.507c-3.738-13.31-15.986-23.096-30.478-23.096z"/></g></symbol>

    <symbol id="mod" xmlns="http://www.w3.org/2000/svg" xml:space="preserve" version="1.1" style="shape-rendering:geometricPrecision; text-rendering:geometricPrecision; image-rendering:optimizeQuality; fill-rule:evenodd; clip-rule:evenodd"
    viewBox="0 0 487.33 487.6"
    xmlns:xlink="http://www.w3.org/1999/xlink">
        <g id="Layer_x0020_1">
        <metadata id="CorelCorpID_0Corel-Layer"/>
        <path class="fil0" d="M187.02 170.83c-20.84,-0.06 -41.69,0.01 -62.54,-0 -5.13,-0 -10.27,0.04 -15.4,-0.01 -8.25,-0.08 -6.9,0.07 -11.25,4.49 -5.41,5.51 -10.29,10.33 -15.74,15.81 -21.18,21.28 -41.96,41.78 -63.07,63.14 -23.15,23.42 -18.67,12.3 -18.67,43.98 0,21.04 0,42.07 0,63.11 0,42.05 -0.39,84.26 0.01,126.27l385.47 -0.02c2.26,-3.69 13.52,-14.61 17.31,-19.1l35.2 -38.43c11.91,-11.7 27.41,-30.75 39.71,-42.8 9.62,-9.42 9.32,-9.97 9.26,-18.64 -0.18,-24.51 -0.01,-49.09 -0.01,-73.63 0,-97.8 -1.34,-196.56 0.04,-294.21 -5.03,-1.54 -48.91,-0.32 -57.84,-0.26l-131.87 0.72c-13.45,0.04 -8.7,-0.99 -27.15,17.42l-73.16 73.28c-12.02,12.06 -10.31,8.27 -10.29,19.4 0.04,19.81 0.04,39.67 -0.01,59.49zm3.28 202.98l12.89 0.06 0.09 -15.98 -12.81 -0.26 -0.17 16.18zm37.21 -260.18l16.39 0.26 -0.04 -12.63 -16.23 -0.26 -0.12 12.63zm-137.9 -32.3l-16.1 0.16 -0.14 16.25 16.13 0.02 0.13 16.16 16.3 0.1 -0.02 -16.19 16.2 -0.1 -0.02 -16.24 -16.14 -0.03 -0.09 -16.17 -16.18 -0.06 -0.08 16.12zm297.04 58.34c0,43.71 -0.63,91.8 0.11,134.97 28.71,-28.38 62.3,-66.53 88.96,-96.92 2.34,-2.66 3.47,-2.99 3.47,-8.17l0.02 -150.58c-3.76,2 -80.41,81.33 -88,88.91 -2.54,2.54 -4.36,3.1 -4.6,7.46 -0.42,7.49 0.04,16.65 0.04,24.33zm-374.93 296.09l0.05 40.45 178.37 0c1.07,-20.21 0.16,-64.51 0.17,-86.01l12.35 -0.11c1.94,5.54 0.39,73.92 0.66,85.83 48.91,1.24 105.13,0.29 154.98,0.28l18.53 -0.06 0.08 -70.41 13.02 -0.08 0.04 59.06 39.5 -42.7c1.6,-1.78 3.25,-3.03 4.85,-4.83 1.82,-2.04 3.1,-3.6 4.85,-5.69l10.43 -10.62c3.71,-3.79 6.33,-7.05 9.56,-10.64 15.74,-17.44 16.77,-12.2 16.77,-57.21l1.6 -140.52 -85.63 91.57c-3.2,3.29 -2.01,16.17 -2.01,23.87 0,13.7 0.64,76.09 -0.28,82.25l-12.42 -0.02 -0.3 -89.28 -173.53 -0.05 -0.1 40.62 -12.99 -0.11 -0.03 -40.52 -157.45 0.01 -0.01 -13.08c50.07,0.76 106.73,-0.19 157.4,0.08l0.08 -105.65 -69.84 0.01c-15.22,0.01 -8.85,-1.63 -27.5,16.5l-70.73 70.89c-13.64,13.68 -10.53,6.84 -10.5,33.49l0.01 132.68zm191.58 -146.67l173.58 0.33 0.03 -175.4 -116.96 -0.07 0.13 -13.01 123.66 0.02c3.73,-7 82.43,-85.53 84.82,-90.81l-171.74 0.85c-6.4,0.87 -86.1,86 -95.95,95.85 -3.76,3.71 -2.47,6.52 -2.46,13.38 0.05,54.51 4.31,114.52 4.9,168.86z"/>
        </g>
    </symbol>

    <symbol id="dis" xmlns="http://www.w3.org/2000/svg" xml:space="preserve" version="1.1" style="shape-rendering:geometricPrecision; text-rendering:geometricPrecision; image-rendering:optimizeQuality; fill-rule:evenodd; clip-rule:evenodd" viewBox="0 0 1128.25 1128.14" xmlns:xlink="http://www.w3.org/1999/xlink">
    <g id="Layer_x0020_1">
    <metadata id="CorelCorpID_0Corel-Layer"/>
    <path class="fil0" d="M944.22 196.38c5.09,8.3 22.8,20.57 31.66,33.25 9.79,14 16.09,25.99 20.1,44.15 8.95,40.61 -6.52,72.1 -21.04,102.11 -8.89,18.38 -82.32,145.74 -100.17,156.97 -25.32,-27.3 -87.31,-129.76 -104.86,-168.23 -9.91,-19.77 -19.29,-43.43 -18.98,-65.99 0.53,-38.32 21.28,-74.54 49.1,-95.53 32.85,-24.8 71.66,-32.23 112.12,-19.71 12.26,3.79 21.57,11.6 32.07,12.98zm-91.7 33.13c-109.54,31.26 -63.02,192.92 44.58,164.85 108.31,-28.25 65.82,-196.36 -44.58,-164.85zm11.24 32.05c-70.34,18.7 -39.6,117.34 25.5,99.67 64.16,-17.41 37.92,-116.54 -25.5,-99.67zm-64.7 641.23c20.96,26.29 33.68,59.33 8.32,95.62 -20.96,30 -48.94,34.86 -91.12,23.76l-55.15 62.04c94.31,-10.95 191.8,-70.61 259.64,-128.57 12.86,-10.99 55.19,-55.93 62.15,-68.93 -12.97,-8.74 -127.85,-46.92 -149.48,-48.95 -4.89,5.85 -31.93,58.17 -34.36,65.03zm-57.95 15.12c-52.48,11.01 -34.52,86.38 15.71,75.81 47.52,-10 34.35,-86.31 -15.71,-75.81zm-546.3 -51.38c-4.27,3.96 -19.84,9.06 -26.38,8.35 -0.47,0.45 -1.12,0.98 -1.5,1.25 -0.38,0.27 -1.06,0.88 -1.53,1.19 -9.01,5.93 -10.64,2.63 -19.45,9.38 8.39,17.61 47.36,55.18 61.37,67.87 61.93,55.99 165.51,117.7 252.03,127.92 -8.41,-15.64 -94.85,-98.01 -140.96,-190.55 -54.92,0.78 -53.41,-6.64 -82.39,-38.28l-41.2 12.87zm224.38 -552.94c-52.73,13.85 -29.75,87.44 17.77,75.57 18.14,-4.54 33.14,-22.59 28.44,-46.42 -3.39,-17.19 -24.71,-34.8 -46.21,-29.15zm-146.77 217.06l-0.41 13.77c3.39,1.77 -1.94,0.5 5.75,1.88 2.97,0.53 5.76,0.6 8.8,0.64l260.32 -0.29 0.39 -165.14 -51.53 -2c-8.54,11.3 -8.05,17.55 -19.84,24.07 -9.16,19.21 -50.74,25.39 -75.32,15.46 -25.77,-10.41 -38.44,-29.59 -45.52,-57.76l-40.7 -8.25c-21.06,34.01 -36.15,135.58 -41.94,177.61zm659.37 -13.79c7.43,11.84 10.22,14.94 14.38,29.63l147.07 0.31c0.69,-36.89 -8.87,-92.38 -18.48,-124.29 -8.28,-27.48 -26.03,-82.45 -41.49,-103.54 -6.7,11.62 -12.28,39.41 -19.07,54.52 -14.22,31.67 -35.07,67.81 -53.24,96.3l-29.17 47.07zm-20.55 31.51c-8.36,2.68 -7.41,5.3 -15.84,16.66 -26.49,35.7 -34.53,1.81 -54.72,-17.85 -11.97,25.87 5.26,53.68 31.78,55.26 31.96,1.91 45.84,-25.84 38.79,-54.07zm-267.6 -172.05c-2.55,1.51 0.83,0.63 -5.8,2.19 -10.26,2.41 -42.55,1.79 -56.73,3.47l-0.25 164.31 222.69 0.41c6.19,-12.23 7.15,-20.28 15.75,-29.4 -6.84,-16.9 -37.03,-52.24 -46.13,-76.24l-40.83 -72.49c-18.74,2.88 -72.04,12.74 -88.69,7.75zm127.74 -195.39c33.08,-14.25 20.32,-30.39 113.79,-37.54 -8.72,-12.62 -76.72,-50.07 -96.59,-59.42 -29.47,-13.86 -85.17,-35.39 -120.82,-38.97 3.34,7.11 41.07,48.6 54.18,66.56l49.45 69.37zm-190.6 165.77c41.97,2.87 101.1,-5.67 140.43,-10.94 -2.42,-31.04 -6.99,-40.27 0.68,-72.82 5.98,-25.38 15.42,-34.43 24.32,-53.9 -5.52,-13.12 -25.17,-39.63 -33.56,-51.59 -12.06,-17.18 -23.99,-33.07 -36.74,-48.22l-59.81 -66.56c-9.17,-9.25 -17.17,-9.13 -35.12,-7.91l-0.2 311.93zm-252.91 -27.38c6.94,4.41 20.46,6.92 30.02,6.83 11.91,-16.05 29.23,-54.07 79.91,-47.85 9.24,1.14 17.54,6.05 23.67,8.71 15.45,6.69 7.37,5.45 17.58,14.56 5.93,5.29 10.38,7.61 14.8,17.43 3.84,8.52 4.13,16.63 7.52,26.41l46.06 1.64 0.07 -311.54c-37.04,-6.71 -43.67,11.29 -75.75,48.48 -37.78,43.79 -133.35,184.73 -143.88,235.33zm-196.27 -59.73c16.23,9.63 138.97,50.23 159.67,52.01l34.6 -72.38c12.3,-24.18 25.32,-46.05 40.59,-69.82 13.91,-21.65 29.85,-44.56 44.26,-63.76 6.68,-8.9 46.1,-56.91 47.5,-60.91 -60.52,7.36 -147.43,50.78 -189.55,79.7 -42.26,29 -116.15,92.97 -137.07,135.16zm-96.6 286.43l202.79 0.76c1.7,-47.97 12.92,-108.53 25.92,-153.68 4.24,-14.74 12.5,-33.96 14.43,-49.07 -28.75,-7.03 -56.58,-15.94 -85.08,-25.24 -27.99,-9.14 -54.24,-21.19 -80.97,-29.07 -15.82,15.45 -43.95,85.83 -53.08,114.24 -11.06,34.4 -26.36,104.47 -24.02,142.07zm0.25 35.56c-10.21,54.79 47.63,233.29 88.33,275.03l105.06 -36.63c4.37,-39.65 13.37,-38.43 32.58,-61.9 -9.68,-70.31 -24.03,-70.54 -24.62,-177.19 -60.13,-0.15 -147.35,-2.14 -201.35,0.69zm545.55 68.54l0.03 117.18c67.87,4.13 108.39,5.42 175.18,17.44 18.92,3.41 39.03,9.23 57.85,11 11.05,-39.15 42.74,-115.95 39.71,-161.7 -13.78,-6.74 -21.92,-10.07 -30.87,-19.18 -11.6,-11.8 -10.79,-20.76 -19.15,-33.95l-222.68 -0.05 -0.06 69.26zm308.64 -15.05c-12.61,58.46 -9.41,65.24 -28.58,129.6 -4.04,13.57 -10.36,26.29 -13.5,39.36l119.21 39.02c11.71,4.05 27.1,11.62 39.57,13.94 12.51,-29.41 30.81,-42.72 59.33,-121.85 13.63,-37.82 29.24,-109.57 27.92,-154.33l-147.52 -0.04c-6.38,26.53 -28.14,48.69 -56.43,54.3zm-308.66 458.01c32.32,0.04 25.76,-4.77 60.89,-39.73l46.89 -54.06c-8.04,-20.05 -25.67,-47.79 -1.26,-84.02 18,-26.72 41.79,-33.51 82.37,-30.38l28.79 -55.28c-19.67,-12.78 -182.39,-28.84 -217.45,-27.84l-0.23 291.31zm-205.6 -273.97c-4.33,43.8 -16.14,40 -25.59,58.43 25.51,46.71 51.97,82.64 83.77,122.09 26.94,33.43 45.74,52.05 74.87,81.37 11.22,11.3 17.04,14.78 39.15,11.45l0.03 -289.6c-27.5,-5.82 -142.49,10 -172.23,16.26zm-99.79 -28.93l0.77 -0.3 0.18 -0.07 0.79 -0.31 0.16 -0.06 0.8 -0.32 0.15 -0.06 0.8 -0.32 0.13 -0.05 0.82 -0.33 0.11 -0.05 0.83 -0.33 0.09 -0.03 0.84 -0.34 0.07 -0.03 0.85 -0.35 0.05 -0.02 0.86 -0.35 0.03 -0.02 0.87 -0.35 0.02 -0.01 0.88 -0.35 0.87 -0.35 0.02 -0.01 0.85 -0.33 0.03 -0.02 0.83 -0.32 0.05 -0.02 0.81 -0.31 0.07 -0.03 0.79 -0.29 0.08 -0.03 0.77 -0.28 0.1 -0.03 0.74 -0.26 0.11 -0.04 0.73 -0.25 0.13 -0.05 0.85 -0.28 0.69 -0.22 0.16 -0.05 0.67 -0.2 0.18 -0.05 0.65 -0.19 0.19 -0.05 0.63 -0.17 0.2 -0.05 0.61 -0.16 0.22 -0.05 0.14 -0.03 0.6 -0.14 0.3 -0.07 0.53 -0.11 0.29 -0.06 0.52 -0.1 0.28 -0.05 0.57 -0.1 0.23 -0.03 0.55 -0.08 0.43 -0.06 0.32 -0.04 0.41 -0.04 0.53 -0.05 0.16 -0.01 0.66 -0.05 0.2 -0.01 0.5 -0.02 0.44 -0.02 0.41 -0 0.3 0 0.58 0.01 0.24 0.01 0.49 0.02 0.38 0.03 0.47 0.03 0.33 0.03 0.47 0.05 0.35 0.04 0.52 0.08 0.24 0.04 0.59 0.1 0.27 0.05 0.45 0.09 0.4 0.09 0.5 0.12 0.27 0.07 0.48 0.14 0.42 0.12 0.32 0.1 0.53 0.18 0.26 0.09 0.54 0.2 0.42 0.17 0.34 0.14 0.54 0.23 0.3 0.14 0.52 0.24 0.31 0.15 0.56 0.29 0.28 0.14 0.56 0.31 0.29 0.16 0.49 0.29 0.38 0.22 0.39 0.25 0.51 0.32 0.04 0.03 0.71 0.47 0.05 0.03 0.54 0.38 0.28 0.2 0.13 0.09 0.75 0.56 0.12 0.09 0.77 0.6 0.1 0.08 0.79 0.65 0.55 0.47 0.35 0.3 0.07 0.06 0.83 0.76 0.05 0.05 0.86 0.81 0.03 0.03 0.88 0.87 0.02 0.02 0.91 0.93c15.35,16.06 13.49,40.83 -1.15,55.06 -33.84,32.89 -89.62,-14.56 -54.23,-55.15l-0.11 -2.48 1.19 -0.45zm-146.12 131.99c148.89,178.2 394.96,258.57 633.2,169.37 81.46,-30.5 165.33,-88.14 217.93,-147.41 26.52,-29.88 42.26,-50.42 63.3,-83.76 51.91,-82.29 80.28,-175.98 84.22,-283.75 3.2,-87.48 -17.92,-174.2 -49,-242.98 -14.37,-31.8 -33.72,-65.32 -53.55,-93.7 -55.14,-78.92 -130.3,-143.1 -217.43,-184.73 -28.67,-13.69 -60.68,-26.06 -93.73,-35.04 -22.92,-6.23 -99.9,-15.79 -108.65,-20.16 -367.3,0 -653.48,266.93 -598.86,649.44 7.69,53.85 25.4,108.48 46.1,151.84 10.69,22.4 21.84,42.99 34.95,63.76 11.45,18.14 28.93,44.78 41.52,57.11zm141.14 -333.99l0 -0.09 0 -0.1c0.02,-1.98 0.05,-3.94 0.11,-5.88 18.14,-3.81 239.71,-1.5 276.8,-1.18l-0.31 186.58c-31.78,1.12 -63.09,2.24 -94.4,5.68 -27.06,2.97 -59.12,9.86 -85.52,12.04 -7.47,-8.52 -11.02,-13.44 -18.59,-21.28 -19.93,-13.94 -25.73,-15.46 -54.82,-17 -4.45,-25.22 -12.2,-50.38 -16.68,-77.63 -4.14,-25.15 -6.81,-54.71 -6.58,-81.13z"/>
    </g>
    </symbol>

    <symbol id="scale" xmlns="http://www.w3.org/2000/svg" xml:space="preserve" version="1.1" style="shape-rendering:geometricPrecision; text-rendering:geometricPrecision; image-rendering:optimizeQuality; fill-rule:evenodd; clip-rule:evenodd"
viewBox="0 0 317.19 313.14"
 xmlns:xlink="http://www.w3.org/1999/xlink">
    <g id="Layer_x0020_1">
    <path class="fil0" d="M137.02 35.67l4.54 6.56 11.7 -18.74 0.1 32.52c-0.69,2.75 -72.14,42.26 -85.79,50.46 -23,13.83 -20.32,7.54 -20.32,47.14l0.1 69.26 9.16 -3.5 0.19 -86.41 97.49 51.87 -0.83 116.31 -92.08 -50.12c3.82,-4.09 46.62,-26.02 50.3,-30.13 -1.87,-3.78 -4.48,-1.7 -5.64,-5.32l-89.9 51.51 12.15 -17.54 -6.1 -2.87 -22.08 32.42 46.35 -3.44 0.7 -8.12 -28.08 5.04 26.54 -12.91c13.92,-7.84 4.11,-7.76 40.8,12.56 22.62,12.53 45.16,26.47 67.42,39.03 5.74,3.24 11.22,1.9 16.34,-0.97l81.4 -47.24 -7.19 -5.87 -56.54 32.25c-4.26,2.51 -19.01,9.44 -23.13,10.71l-0.27 -115.31 101.33 -57.48 1.46 108.7c-12.45,-6.2 -38.24,-22.93 -48.93,-27.85 -1.99,1.84 -3.53,2.97 -4.55,6.25 4.63,1.63 14.79,8.16 19.57,10.92l64.46 37.7 -19.36 -2.79 0.57 11.27 38.28 -1.94 -17.38 -35.44 -9.15 6.53 11.98 15.59 -27.52 -15.4c-0.67,-16.76 1.36,-113.06 -1.08,-119.42 -2.06,-5.37 -5.77,-7.1 -10.32,-9.68l-63.27 -36.55c-3.74,-2.19 -9.48,-5.97 -13.29,-7.53 -0.48,0.46 -0.52,0.44 -1.11,1.22l-3.09 5.79c5.07,1.78 45.28,25.82 53.85,30.64 5.28,2.97 20.37,12.36 24.78,15.51 -2.25,2.43 -97.41,58.98 -97.92,59 -5.83,0.25 -87.53,-48.23 -103.22,-55.08 -0.11,-0.06 -1.29,-0.8 -1.37,-0.85l-1.21 -1.02c-0.08,-0.07 -0.26,-0.24 -0.38,-0.37l96.34 -57.01 -0.43 56.86 8.11 0.33 0.08 -99.73 10.51 17.09 5.73 -4.75 -5.28 -8.73 -14.89 -26.61 -20.63 35.67z"/>
    </g>
    </symbol>

</svg>



