<?xml version="1.0"?>
<svg>
    <symbol id="mission" xmlns="http://www.w3.org/2000/svg" xmlns:xlink="http://www.w3.org/1999/xlink" xmlns:svgjs="http://svgjs.com/svgjs" version="1.1" viewBox="0 0 128 128" xml:space="preserve" class=""><g><path xmlns="http://www.w3.org/2000/svg" d="m92.928 47.95a1.753 1.753 0 0 0 1.238-.513l14.2-14.2a1.75 1.75 0 0 0 -1.142-2.985l-8.985-.49-.49-8.985a1.75 1.75 0 0 0 -2.985-1.142l-14.2 14.2a1.749 1.749 0 0 0 -.51 1.333l.036.661a39.21 39.21 0 0 0 -21.329-6.229 39.636 39.636 0 1 0 39.639 39.639 39.213 39.213 0 0 0 -6.225-21.328l.661.036c.029.002.064.003.092.003zm-29.257 21.289a4.939 4.939 0 1 1 -2.91-4.474l-3.238 3.235a1.75 1.75 0 0 0 2.477 2.477l3.237-3.238a4.87 4.87 0 0 1 .434 2zm-.337-7.048a8.432 8.432 0 1 0 2.475 2.475l5.15-5.15a15.658 15.658 0 1 1 -2.475-2.475zm7.641-7.641a19.146 19.146 0 1 0 2.475 2.475l4.715-4.715a25.813 25.813 0 1 1 -2.475-2.475zm23.925 14.689a36.136 36.136 0 1 1 -36.139-36.139 35.756 35.756 0 0 1 21.569 7.15l.256 4.687-2.417 2.416a29.316 29.316 0 1 0 2.475 2.475l2.416-2.417 4.687.256a35.76 35.76 0 0 1 7.153 21.572zm-10.862-25.277-.448-8.205 10.874-10.873.362 6.638a1.75 1.75 0 0 0 1.652 1.652l6.638.362-10.873 10.874z" data-original="#000000" style=""/></g></symbol>
</svg>

