<?xml version="1.0" encoding="UTF-8"?>
<!DOCTYPE svg PUBLIC "-//W3C//DTD SVG 1.1//EN" "http://www.w3.org/Graphics/SVG/1.1/DTD/svg11.dtd">
<!-- Creator: CorelDRAW 2019 (64-Bit Evaluation Version) -->
<svg xmlns="http://www.w3.org/2000/svg" xml:space="preserve" width="30.0029mm" height="30mm" version="1.1" style="shape-rendering:geometricPrecision; text-rendering:geometricPrecision; image-rendering:optimizeQuality; fill-rule:evenodd; clip-rule:evenodd"
viewBox="0 0 1128.25 1128.14"
 xmlns:xlink="http://www.w3.org/1999/xlink">
 <defs>
  <style type="text/css">
   <![CDATA[
    .fil0 {fill:#159e49}
   ]]>
  </style>
 </defs>
 <g id="Layer_x0020_1">
  <metadata id="CorelCorpID_0Corel-Layer"/>
  <path class="fil0" d="M944.22 196.38c5.09,8.3 22.8,20.57 31.66,33.25 9.79,14 16.09,25.99 20.1,44.15 8.95,40.61 -6.52,72.1 -21.04,102.11 -8.89,18.38 -82.32,145.74 -100.17,156.97 -25.32,-27.3 -87.31,-129.76 -104.86,-168.23 -9.91,-19.77 -19.29,-43.43 -18.98,-65.99 0.53,-38.32 21.28,-74.54 49.1,-95.53 32.85,-24.8 71.66,-32.23 112.12,-19.71 12.26,3.79 21.57,11.6 32.07,12.98zm-91.7 33.13c-109.54,31.26 -63.02,192.92 44.58,164.85 108.31,-28.25 65.82,-196.36 -44.58,-164.85zm11.24 32.05c-70.34,18.7 -39.6,117.34 25.5,99.67 64.16,-17.41 37.92,-116.54 -25.5,-99.67zm-64.7 641.23c20.96,26.29 33.68,59.33 8.32,95.62 -20.96,30 -48.94,34.86 -91.12,23.76l-55.15 62.04c94.31,-10.95 191.8,-70.61 259.64,-128.57 12.86,-10.99 55.19,-55.93 62.15,-68.93 -12.97,-8.74 -127.85,-46.92 -149.48,-48.95 -4.89,5.85 -31.93,58.17 -34.36,65.03zm-57.95 15.12c-52.48,11.01 -34.52,86.38 15.71,75.81 47.52,-10 34.35,-86.31 -15.71,-75.81zm-546.3 -51.38c-4.27,3.96 -19.84,9.06 -26.38,8.35 -0.47,0.45 -1.12,0.98 -1.5,1.25 -0.38,0.27 -1.06,0.88 -1.53,1.19 -9.01,5.93 -10.64,2.63 -19.45,9.38 8.39,17.61 47.36,55.18 61.37,67.87 61.93,55.99 165.51,117.7 252.03,127.92 -8.41,-15.64 -94.85,-98.01 -140.96,-190.55 -54.92,0.78 -53.41,-6.64 -82.39,-38.28l-41.2 12.87zm224.38 -552.94c-52.73,13.85 -29.75,87.44 17.77,75.57 18.14,-4.54 33.14,-22.59 28.44,-46.42 -3.39,-17.19 -24.71,-34.8 -46.21,-29.15zm-146.77 217.06l-0.41 13.77c3.39,1.77 -1.94,0.5 5.75,1.88 2.97,0.53 5.76,0.6 8.8,0.64l260.32 -0.29 0.39 -165.14 -51.53 -2c-8.54,11.3 -8.05,17.55 -19.84,24.07 -9.16,19.21 -50.74,25.39 -75.32,15.46 -25.77,-10.41 -38.44,-29.59 -45.52,-57.76l-40.7 -8.25c-21.06,34.01 -36.15,135.58 -41.94,177.61zm659.37 -13.79c7.43,11.84 10.22,14.94 14.38,29.63l147.07 0.31c0.69,-36.89 -8.87,-92.38 -18.48,-124.29 -8.28,-27.48 -26.03,-82.45 -41.49,-103.54 -6.7,11.62 -12.28,39.41 -19.07,54.52 -14.22,31.67 -35.07,67.81 -53.24,96.3l-29.17 47.07zm-20.55 31.51c-8.36,2.68 -7.41,5.3 -15.84,16.66 -26.49,35.7 -34.53,1.81 -54.72,-17.85 -11.97,25.87 5.26,53.68 31.78,55.26 31.96,1.91 45.84,-25.84 38.79,-54.07zm-267.6 -172.05c-2.55,1.51 0.83,0.63 -5.8,2.19 -10.26,2.41 -42.55,1.79 -56.73,3.47l-0.25 164.31 222.69 0.41c6.19,-12.23 7.15,-20.28 15.75,-29.4 -6.84,-16.9 -37.03,-52.24 -46.13,-76.24l-40.83 -72.49c-18.74,2.88 -72.04,12.74 -88.69,7.75zm127.74 -195.39c33.08,-14.25 20.32,-30.39 113.79,-37.54 -8.72,-12.62 -76.72,-50.07 -96.59,-59.42 -29.47,-13.86 -85.17,-35.39 -120.82,-38.97 3.34,7.11 41.07,48.6 54.18,66.56l49.45 69.37zm-190.6 165.77c41.97,2.87 101.1,-5.67 140.43,-10.94 -2.42,-31.04 -6.99,-40.27 0.68,-72.82 5.98,-25.38 15.42,-34.43 24.32,-53.9 -5.52,-13.12 -25.17,-39.63 -33.56,-51.59 -12.06,-17.18 -23.99,-33.07 -36.74,-48.22l-59.81 -66.56c-9.17,-9.25 -17.17,-9.13 -35.12,-7.91l-0.2 311.93zm-252.91 -27.38c6.94,4.41 20.46,6.92 30.02,6.83 11.91,-16.05 29.23,-54.07 79.91,-47.85 9.24,1.14 17.54,6.05 23.67,8.71 15.45,6.69 7.37,5.45 17.58,14.56 5.93,5.29 10.38,7.61 14.8,17.43 3.84,8.52 4.13,16.63 7.52,26.41l46.06 1.64 0.07 -311.54c-37.04,-6.71 -43.67,11.29 -75.75,48.48 -37.78,43.79 -133.35,184.73 -143.88,235.33zm-196.27 -59.73c16.23,9.63 138.97,50.23 159.67,52.01l34.6 -72.38c12.3,-24.18 25.32,-46.05 40.59,-69.82 13.91,-21.65 29.85,-44.56 44.26,-63.76 6.68,-8.9 46.1,-56.91 47.5,-60.91 -60.52,7.36 -147.43,50.78 -189.55,79.7 -42.26,29 -116.15,92.97 -137.07,135.16zm-96.6 286.43l202.79 0.76c1.7,-47.97 12.92,-108.53 25.92,-153.68 4.24,-14.74 12.5,-33.96 14.43,-49.07 -28.75,-7.03 -56.58,-15.94 -85.08,-25.24 -27.99,-9.14 -54.24,-21.19 -80.97,-29.07 -15.82,15.45 -43.95,85.83 -53.08,114.24 -11.06,34.4 -26.36,104.47 -24.02,142.07zm0.25 35.56c-10.21,54.79 47.63,233.29 88.33,275.03l105.06 -36.63c4.37,-39.65 13.37,-38.43 32.58,-61.9 -9.68,-70.31 -24.03,-70.54 -24.62,-177.19 -60.13,-0.15 -147.35,-2.14 -201.35,0.69zm545.55 68.54l0.03 117.18c67.87,4.13 108.39,5.42 175.18,17.44 18.92,3.41 39.03,9.23 57.85,11 11.05,-39.15 42.74,-115.95 39.71,-161.7 -13.78,-6.74 -21.92,-10.07 -30.87,-19.18 -11.6,-11.8 -10.79,-20.76 -19.15,-33.95l-222.68 -0.05 -0.06 69.26zm308.64 -15.05c-12.61,58.46 -9.41,65.24 -28.58,129.6 -4.04,13.57 -10.36,26.29 -13.5,39.36l119.21 39.02c11.71,4.05 27.1,11.62 39.57,13.94 12.51,-29.41 30.81,-42.72 59.33,-121.85 13.63,-37.82 29.24,-109.57 27.92,-154.33l-147.52 -0.04c-6.38,26.53 -28.14,48.69 -56.43,54.3zm-308.66 458.01c32.32,0.04 25.76,-4.77 60.89,-39.73l46.89 -54.06c-8.04,-20.05 -25.67,-47.79 -1.26,-84.02 18,-26.72 41.79,-33.51 82.37,-30.38l28.79 -55.28c-19.67,-12.78 -182.39,-28.84 -217.45,-27.84l-0.23 291.31zm-205.6 -273.97c-4.33,43.8 -16.14,40 -25.59,58.43 25.51,46.71 51.97,82.64 83.77,122.09 26.94,33.43 45.74,52.05 74.87,81.37 11.22,11.3 17.04,14.78 39.15,11.45l0.03 -289.6c-27.5,-5.82 -142.49,10 -172.23,16.26zm-99.79 -28.93l0.77 -0.3 0.18 -0.07 0.79 -0.31 0.16 -0.06 0.8 -0.32 0.15 -0.06 0.8 -0.32 0.13 -0.05 0.82 -0.33 0.11 -0.05 0.83 -0.33 0.09 -0.03 0.84 -0.34 0.07 -0.03 0.85 -0.35 0.05 -0.02 0.86 -0.35 0.03 -0.02 0.87 -0.35 0.02 -0.01 0.88 -0.35 0.87 -0.35 0.02 -0.01 0.85 -0.33 0.03 -0.02 0.83 -0.32 0.05 -0.02 0.81 -0.31 0.07 -0.03 0.79 -0.29 0.08 -0.03 0.77 -0.28 0.1 -0.03 0.74 -0.26 0.11 -0.04 0.73 -0.25 0.13 -0.05 0.85 -0.28 0.69 -0.22 0.16 -0.05 0.67 -0.2 0.18 -0.05 0.65 -0.19 0.19 -0.05 0.63 -0.17 0.2 -0.05 0.61 -0.16 0.22 -0.05 0.14 -0.03 0.6 -0.14 0.3 -0.07 0.53 -0.11 0.29 -0.06 0.52 -0.1 0.28 -0.05 0.57 -0.1 0.23 -0.03 0.55 -0.08 0.43 -0.06 0.32 -0.04 0.41 -0.04 0.53 -0.05 0.16 -0.01 0.66 -0.05 0.2 -0.01 0.5 -0.02 0.44 -0.02 0.41 -0 0.3 0 0.58 0.01 0.24 0.01 0.49 0.02 0.38 0.03 0.47 0.03 0.33 0.03 0.47 0.05 0.35 0.04 0.52 0.08 0.24 0.04 0.59 0.1 0.27 0.05 0.45 0.09 0.4 0.09 0.5 0.12 0.27 0.07 0.48 0.14 0.42 0.12 0.32 0.1 0.53 0.18 0.26 0.09 0.54 0.2 0.42 0.17 0.34 0.14 0.54 0.23 0.3 0.14 0.52 0.24 0.31 0.15 0.56 0.29 0.28 0.14 0.56 0.31 0.29 0.16 0.49 0.29 0.38 0.22 0.39 0.25 0.51 0.32 0.04 0.03 0.71 0.47 0.05 0.03 0.54 0.38 0.28 0.2 0.13 0.09 0.75 0.56 0.12 0.09 0.77 0.6 0.1 0.08 0.79 0.65 0.55 0.47 0.35 0.3 0.07 0.06 0.83 0.76 0.05 0.05 0.86 0.81 0.03 0.03 0.88 0.87 0.02 0.02 0.91 0.93c15.35,16.06 13.49,40.83 -1.15,55.06 -33.84,32.89 -89.62,-14.56 -54.23,-55.15l-0.11 -2.48 1.19 -0.45zm-146.12 131.99c148.89,178.2 394.96,258.57 633.2,169.37 81.46,-30.5 165.33,-88.14 217.93,-147.41 26.52,-29.88 42.26,-50.42 63.3,-83.76 51.91,-82.29 80.28,-175.98 84.22,-283.75 3.2,-87.48 -17.92,-174.2 -49,-242.98 -14.37,-31.8 -33.72,-65.32 -53.55,-93.7 -55.14,-78.92 -130.3,-143.1 -217.43,-184.73 -28.67,-13.69 -60.68,-26.06 -93.73,-35.04 -22.92,-6.23 -99.9,-15.79 -108.65,-20.16 -367.3,0 -653.48,266.93 -598.86,649.44 7.69,53.85 25.4,108.48 46.1,151.84 10.69,22.4 21.84,42.99 34.95,63.76 11.45,18.14 28.93,44.78 41.52,57.11zm141.14 -333.99l0 -0.09 0 -0.1c0.02,-1.98 0.05,-3.94 0.11,-5.88 18.14,-3.81 239.71,-1.5 276.8,-1.18l-0.31 186.58c-31.78,1.12 -63.09,2.24 -94.4,5.68 -27.06,2.97 -59.12,9.86 -85.52,12.04 -7.47,-8.52 -11.02,-13.44 -18.59,-21.28 -19.93,-13.94 -25.73,-15.46 -54.82,-17 -4.45,-25.22 -12.2,-50.38 -16.68,-77.63 -4.14,-25.15 -6.81,-54.71 -6.58,-81.13z"/>
 </g>
</svg>
