<svg xmlns="http://www.w3.org/2000/svg" width="97.094" height="100" viewBox="0 0 97.094 100">
  <defs>
    <style>
      .cls-1 {
        fill: #0d1c25;
        fill-rule: evenodd;
      }
    </style>
  </defs>
  <path id="icon" class="cls-1" d="M490.208,2687.35c5.8-2.17,12.759.98,15.454,6.58a11.733,11.733,0,0,1,.362,9.71c11.028,5.33,21.989,10.79,32.993,16.17,7.893,3.86,15.761,7.76,23.658,11.62a8.833,8.833,0,0,1,4.131,2.95,6.76,6.76,0,0,1,.633,6.09,6.577,6.577,0,0,1-5.646,3.67c-2.223.09-4.036-1.41-6.019-2.18-0.055,9.57.012,19.15-.032,28.73,1.5,0.15,3.12.91,3.333,2.62,0.106,2.33,0,4.68.059,7.02,2.793,0.01,5.594-.03,8.392.01a1.843,1.843,0,0,1,1.978,1.78c0.052,1.51.02,3.02-.019,4.53H472.531c0.055-1.81-.26-3.67.181-5.44,1.326-1.57,3.62-.64,5.378-0.89q-0.028-27.42,0-54.86c-1.672-2.21-3.619-4.61-3.375-7.6,0.358-3.67,1.758-7.12,3.057-10.52,1.931-4.72,3.32-9.71,6.074-14.03,1.476-2.56,3.533-4.97,6.362-5.96m-2.034,3.97c-3.23,3.62-5.075,8.26-6.716,12.79-1.546,4.28-3.525,8.44-4.383,12.95a6.608,6.608,0,0,0,1.771,5.53c0.48,0.8,1.428,1.42,1.412,2.44-0.02,19.22.02,38.43-.02,57.65-1.833-.01-3.666,0-5.5-0.01,0.008,0.41.02,1.21,0.024,1.62,30.79,0.04,61.584-.02,92.374.02,0.083-.53.177-1.06,0.275-1.58-3.529-.11-7.062-0.04-10.587-0.05-0.051-3.16.036-6.32-.055-9.48-1.117-.05-2.231-0.06-3.34-0.09q0.018-17.385.008-34.78c2.368,0.8,4.485,2.2,6.79,3.17a3.862,3.862,0,0,0,5.3-2.79,3.963,3.963,0,0,0-2.176-4.37q-30.257-14.85-60.506-29.72a9.355,9.355,0,0,0,.586-9.99c-2.734-5.4-10.725-7.72-15.261-3.31h0Zm5-.45a7.732,7.732,0,0,1,8.865,5.24,7.913,7.913,0,0,1-2.184,8.32,7.572,7.572,0,0,1-8.148,1.4,7.938,7.938,0,0,1,1.467-14.96m0.008,2.39a5.577,5.577,0,0,0,.484,10.75,5.468,5.468,0,0,0,6.468-5.06c0.386-3.7-3.5-6.87-6.952-5.69h0Zm4.615,17.76c2.861,1.06,5.528,2.61,8.294,3.91,4.851,2.4,9.729,4.75,14.565,7.18-6.323,20.18-12.5,40.41-18.869,60.56-5.866,0-11.732.02-17.6,0,0.012-11.03.036-22.05,0.008-33.07,0.284-8.17.04-16.35,0.162-24.53-0.118-1.1.94-1.68,1.656-2.27a57.5,57.5,0,0,0,7.463-7.16c1.436-1.55,2.975-2.99,4.32-4.62m-11.327,14.4v54.9c4.564,0.01,9.132,0,13.7.01q8.875-28.5,17.74-57.01c-6.5-3.16-12.96-6.42-19.483-9.53-3.9,3.96-7.464,8.33-11.953,11.63h0Zm41.3,0.16c6.511,3.18,13,6.41,19.518,9.56,0.028,12.6-.016,25.21.024,37.81-9.1,2.08-18.161,4.3-27.253,6.4-2.927.66-5.811,1.52-8.774,1.98,5.611-18.55,10.953-37.18,16.485-55.75m1.412,3.34c-4.9,16.44-9.7,32.9-14.549,49.35q15.185-3.63,30.385-7.17c-0.012-11.5.012-23-.012-34.5-5.307-2.48-10.489-5.25-15.824-7.68h0Z" transform="translate(-472.469 -2686.66)"/>
</svg>
