<svg xmlns="http://www.w3.org/2000/svg" width="24" height="20" viewBox="0 0 24 20">
  <defs>
    <style>
      .cls-1 {
        fill: #0fc5d3;
        fill-rule: evenodd;
      }
    </style>
  </defs>
  <path id="wind" class="cls-1" d="M410.439,1202.13H390.9a0.9,0.9,0,0,1,0-1.8h19.541a1.765,1.765,0,1,0-1.765-1.77,0.9,0.9,0,1,1-1.8,0A3.561,3.561,0,1,1,410.439,1202.13Zm2.3,3.8H390.9a0.9,0.9,0,0,1,0-1.8h21.845A0.9,0.9,0,0,1,412.743,1205.93Zm-2.3,9.07a3.566,3.566,0,0,1-3.561-3.56,0.9,0.9,0,1,1,1.8,0,1.765,1.765,0,1,0,1.765-1.77H390.9a0.9,0.9,0,0,1,0-1.8h19.541A3.565,3.565,0,0,1,410.439,1215Z" transform="translate(-390 -1195)"/>
</svg>
