<svg id="Layer_1" data-name="Layer 1" xmlns="http://www.w3.org/2000/svg" viewBox="0 0 206.35 221.34"><defs><style>.cls-1{fill:#323e4a;}</style></defs><title>icon3</title><path class="cls-1" d="M190.73,270.73l3.21-1.17A7.43,7.43,0,0,1,198,273c8.95,14.76,19.27,28.61,28.66,43.07A88.43,88.43,0,0,1,219,320.4c-8-12.68-16.92-24.84-25.11-37.42-1.67,1-2.4,3-3.51,4.51q-9.11,13.77-18.6,27.3c-7.35,10.52-12.52,23.14-11.68,36.18-.1,13.56,9.3,27,22.82,30a34.6,34.6,0,0,1-2,8.51,38.54,38.54,0,0,1-26.17-22.27c-5.72-13.65-4.1-29.48,1.69-42.83,3.61-8.74,9.47-16.23,14.75-24q10.11-14.6,19.55-29.63Z" transform="translate(-151.19 -269.56)"/><path class="cls-1" d="M312.29,270.63l2.54-.92c1.05.3,2.1.62,3.16.94,5.09,8.53,10.79,16.68,16.27,25s11.63,16,16.19,24.74c7,14,9.79,31.1,3.81,46a39,39,0,0,1-26.57,23.25,49.34,49.34,0,0,1-1.76-8.65A29.73,29.73,0,0,0,343,369.11c5.95-8.77,6.9-20.06,4.77-30.23-1.95-9.63-6.67-18.47-12.42-26.35-6.14-8.91-12.37-17.79-18.18-26.92-.72-.9-1.14-2.23-2.34-2.56-4.16,5.58-7.61,11.68-11.73,17.31-4.42,6.67-9.27,13.05-13.42,19.91a69.47,69.47,0,0,1-7.7-4.14c9.91-15.28,20.76-29.95,30.27-45.5Z" transform="translate(-151.19 -269.56)"/><path class="cls-1" d="M252.32,298.72c1.83-.48,4.35-.67,5.38,1.29,11.63,18.87,24.21,37.12,36.76,55.38,3.35,5,7.06,9.74,10.12,14.93,10.61,17.53,17.38,38,16.23,58.62-.68,15.85-6.57,31.84-17.89,43.19-12.25,13-30.52,19-48.09,18.75-17.65.45-36.08-5.41-48.55-18.27-9.89-9.6-15.82-22.82-17.69-36.38-2.58-17.25.84-35,7.74-50.87,6-14.64,16.1-27,24.84-40.06,9.87-14.52,19.83-29,29-44a7.62,7.62,0,0,1,2.17-2.57m1.76,12.45c-10.48,17.27-22.21,33.73-33.6,50.39-3.56,5.48-7.63,10.64-10.76,16.39a100.32,100.32,0,0,0-12.28,34c-2.8,16.18-.32,33.76,9,47.52,8.21,12.22,22.09,19.89,36.5,22,13.93,2.06,28.75.59,41.3-6.08,12.31-6.3,21.35-18.09,25.22-31.27,5.2-17,2.74-35.59-3.68-51.95-6.56-17.48-19-31.73-29-47.22-7.85-11.08-14.9-22.71-22.71-33.8Z" transform="translate(-151.19 -269.56)"/><path class="cls-1" d="M169.2,345.28c2.78.2,5.56.44,8.34.67-.23,6.27,1.17,13.3,6.8,17-1.36,2.31-2.62,4.68-3.81,7.09-9.4-3.9-12.27-15.45-11.33-24.72Z" transform="translate(-151.19 -269.56)"/><path class="cls-1" d="M331.2,345.88c2.79-.19,5.58-.42,8.38-.58.47,6.33-.41,13-3.95,18.41-1.89,2.72-4.3,5.4-7.63,6.26a69.29,69.29,0,0,0-3.72-7.22c5.89-3.34,7.08-10.69,6.92-16.87Z" transform="translate(-151.19 -269.56)"/><path class="cls-1" d="M252.34,366.63c2.25-1.19,4.51.09,6.11,1.69.15,2.25.24,4.51.3,6.77,8.74,1.88,15.73,10,15.54,19-.28.58-.82,1.76-1.1,2.34-2.42,2-7.07,1.73-7.48-2-.19-4.46-2.66-8.78-7-10.24-7.11-3.34-17.39,3.05-15.17,11.3,2.53,4.88,8.28,6.62,12.8,9.16,7,3.48,15.59,7.22,17.54,15.64,2.3,9.73-5.27,19.27-14.52,21.59-1.56,2,.38,5.71-1.85,7.62-1.38,1.93-3.92,1.05-5.89,1-1.85-2.51-1.11-5.69-1.79-8.47-9.11-2.28-17.45-11.73-14.46-21.46,1.78-.81,3.76-1.77,5.72-.9,3.41,2.46,1.52,7.68,4.73,10.32,4.3,4.86,12.88,5,17.15,0,3-2.89,3.79-8.44.25-11.21-7.6-6.52-18.52-8.16-25.22-15.88-5.16-5.94-4.25-15.35.8-21.06,2.79-3.63,7-5.69,11.35-6.86.29-2.82-1-6.88,2.24-8.39Z" transform="translate(-151.19 -269.56)"/><path class="cls-1" d="M208.85,426.91c-.09-2.37,2.09-3.43,3.92-4.25l2.82.92,1.64,2c.36,8.51,2.46,17.31,8,24,2.21,2.85,5.37,4.74,7.76,7.43,1,1.78-.15,3.66-.89,5.3-1.13.36-2.25.75-3.36,1.15-13.26-6.69-19.79-22.28-19.89-36.55Z" transform="translate(-151.19 -269.56)"/></svg>