<svg id="Layer_1" data-name="Layer 1" xmlns="http://www.w3.org/2000/svg" xmlns:xlink="http://www.w3.org/1999/xlink" viewBox="0 0 512 512"><defs><style>.cls-1{fill:none;}.cls-2{clip-path:url(#clip-path);}.cls-3{fill:#231f20;}</style><clipPath id="clip-path" transform="translate(0 0)"><rect class="cls-1" width="512" height="512"/></clipPath></defs><title>icon7</title><g class="cls-2"><path class="cls-3" d="M290.13,512H221.87a8.54,8.54,0,0,1-8.54-8.54V473.6c0-9.82-6.27-18.53-15.24-21.16a204.05,204.05,0,0,1-39.93-16.54A22,22,0,0,0,132.33,440l-21.14,21.14a8.52,8.52,0,0,1-12.07,0L50.85,412.87a8.51,8.51,0,0,1,0-12.06L72,379.67c6.93-6.94,8.62-17.56,4.11-25.83a203.4,203.4,0,0,1-16.53-39.93c-2.64-9-11.35-15.24-21.17-15.24H8.53A8.54,8.54,0,0,1,0,290.13V221.87a8.54,8.54,0,0,1,8.53-8.54H38.4c9.82,0,18.53-6.26,21.16-15.24a204.63,204.63,0,0,1,16.53-39.93c4.51-8.27,2.82-18.89-4.11-25.83L50.84,111.19a8.52,8.52,0,0,1,0-12.07L99.11,50.85a8.52,8.52,0,0,1,12.07,0L132.32,72a22,22,0,0,0,25.84,4.11,203.55,203.55,0,0,1,39.93-16.54c9-2.63,15.24-11.34,15.24-21.16V8.54A8.54,8.54,0,0,1,221.87,0h68.26a8.54,8.54,0,0,1,8.54,8.54V38.4c0,9.82,6.27,18.53,15.24,21.16A204.05,204.05,0,0,1,353.84,76.1c8.27,4.5,18.89,2.81,25.83-4.11l21.14-21.14a8.51,8.51,0,0,1,12.06,0l48.28,48.27a8.52,8.52,0,0,1,0,12.07L440,132.33c-6.94,6.94-8.62,17.56-4.11,25.83a204,204,0,0,1,16.53,39.93c2.64,9,11.35,15.24,21.17,15.24h29.86a8.54,8.54,0,0,1,8.54,8.54v68.26a8.54,8.54,0,0,1-8.54,8.54H473.6c-9.82,0-18.53,6.26-21.16,15.24a204.63,204.63,0,0,1-16.53,39.93c-4.52,8.27-2.82,18.89,4.11,25.83l21.14,21.14a8.51,8.51,0,0,1,0,12.06l-48.27,48.28a8.52,8.52,0,0,1-12.07,0L379.68,440c-6.93-6.93-17.56-8.62-25.84-4.11a204.16,204.16,0,0,1-39.93,16.54c-9,2.63-15.24,11.34-15.24,21.16v29.86a8.54,8.54,0,0,1-8.54,8.54M230.4,494.93h51.2V473.6c0-17.34,11.31-32.78,27.49-37.54a186.6,186.6,0,0,0,36.58-15.14c14.87-8.1,33.83-5.21,46.07,7l15.1,15.1,36.21-36.21-15.11-15.1c-12.24-12.25-15.13-31.2-7-46.07a187.3,187.3,0,0,0,15.14-36.59c4.77-16.18,20.21-27.49,37.55-27.49h21.33V230.4H473.6c-17.34,0-32.78-11.31-37.54-27.49a187,187,0,0,0-15.15-36.59c-8.1-14.88-5.21-33.82,7-46.07l15.1-15.1L406.85,69l-15.1,15.11c-12.25,12.25-31.19,15.15-46.07,7a186.47,186.47,0,0,0-36.59-15.15c-16.18-4.76-27.49-20.2-27.49-37.54V17.07H230.4V38.4c0,17.34-11.31,32.78-27.49,37.54a186.6,186.6,0,0,0-36.58,15.14c-14.87,8.11-33.83,5.22-46.07-7l-15.1-15.1L69,105.15l15.1,15.1c12.26,12.25,15.15,31.2,7,46.07a188,188,0,0,0-15.15,36.59c-4.76,16.18-20.2,27.49-37.54,27.49H17.07v51.2H38.4c17.34,0,32.78,11.31,37.54,27.49a187,187,0,0,0,15.15,36.59c8.1,14.88,5.21,33.82-7,46.07l-15.1,15.1,36.21,36.21,15.1-15.1c12.25-12.25,31.2-15.14,46.07-7a185.82,185.82,0,0,0,36.59,15.14c16.18,4.76,27.49,20.2,27.49,37.54Z" transform="translate(0 0)"/><path class="cls-3" d="M256,418.13C166.6,418.13,93.87,345.4,93.87,256S166.6,93.87,256,93.87,418.13,166.6,418.13,256,345.4,418.13,256,418.13m0-307.2C176,110.93,110.93,176,110.93,256S176,401.07,256,401.07,401.07,336,401.07,256,336,110.93,256,110.93" transform="translate(0 0)"/><path class="cls-3" d="M256,256H216.71a37.56,37.56,0,0,1-37.51-37.51V179.2a8.53,8.53,0,0,1,8.53-8.53H227a37.56,37.56,0,0,1,37.52,37.51v39.28A8.54,8.54,0,0,1,256,256m-59.73-68.27v30.76a20.46,20.46,0,0,0,20.44,20.44h30.76V208.18A20.48,20.48,0,0,0,227,187.73Z" transform="translate(0 0)"/><path class="cls-3" d="M256,256a8.52,8.52,0,0,1-6-2.5l-34.14-34.13A8.53,8.53,0,0,1,227.9,207.3L262,241.43A8.54,8.54,0,0,1,256,256" transform="translate(0 0)"/><path class="cls-3" d="M295.29,256H256a8.53,8.53,0,0,1-8.53-8.53V208.18A37.55,37.55,0,0,1,285,170.67h39.29a8.53,8.53,0,0,1,8.53,8.53v39.29A37.56,37.56,0,0,1,295.29,256m-30.75-17.07h30.75a20.46,20.46,0,0,0,20.44-20.44V187.73H285a20.47,20.47,0,0,0-20.44,20.45Z" transform="translate(0 0)"/><path class="cls-3" d="M256,256a8.54,8.54,0,0,1-6-14.57L284.1,207.3a8.53,8.53,0,0,1,12.07,12.07L262,253.5a8.52,8.52,0,0,1-6,2.5" transform="translate(0 0)"/><path class="cls-3" d="M256,307.2a8.54,8.54,0,0,1-8.54-8.53v-51.2a8.54,8.54,0,1,1,17.07,0v51.2A8.53,8.53,0,0,1,256,307.2" transform="translate(0 0)"/><path class="cls-3" d="M298.67,341.33H213.33a8.53,8.53,0,0,1-8.53-8.53,42.72,42.72,0,0,1,42.67-42.67h17.07A42.71,42.71,0,0,1,307.2,332.8a8.53,8.53,0,0,1-8.53,8.53m-75.35-17.06h65.34a25.63,25.63,0,0,0-24.14-17.07H247.46a25.65,25.65,0,0,0-24.14,17.07" transform="translate(0 0)"/></g></svg>