<svg xmlns="http://www.w3.org/2000/svg" width="50" height="50" viewBox="0 0 50 50">
  <defs>
    <style>
      .cls-1 {
        fill: #0fc5d3;
        fill-rule: evenodd;
      }
    </style>
  </defs>
  <path id="icon" class="cls-1" d="M412.987,2143.55c0.88-.53,2.239-0.43,2.474.78,0.1,7.99-.016,15.98.056,23.97a38.8,38.8,0,0,1,4.522-2.65,3.865,3.865,0,0,1,4.116,1.5c4.29,4.41,8.452,8.95,12.719,13.38,0.47,0.48,1.052,1.2.635,1.9a1.273,1.273,0,0,1-1.836.77c-5.637-3.14-11.085-6.64-16.728-9.76-0.007,6.01.013,12.03-.01,18.04,6.9,0.06,13.8-.08,20.691.07,0.1,0.21.281,0.64,0.374,0.85-0.116.2-.344,0.58-0.46,0.78-15.888.07-31.777,0-47.665,0.04A6.25,6.25,0,0,1,390,2193c0.02-.48.043-0.96,0.063-1.43,6.934-.2,13.881-0.03,20.821-0.09,0-3.86.01-7.71-.007-11.57q-7.452,1.89-14.886,3.84a6.071,6.071,0,0,1-3.232.34c-0.608-.5-0.426-1.35-0.433-2.04,6.742-4.2,13.682-8.06,20.463-12.2-1.349-.99-2.944-1.58-4.247-2.63a3.877,3.877,0,0,1-1.019-4.16c1.823-6.5,3.549-13.04,5.465-19.51m0.129,5.62q-2,7.29-4.026,14.57a2.07,2.07,0,0,0,.833,2.39c1.267,0.78,2.577,1.49,3.884,2.2-0.01-7.02.079-14.03-.046-21.04a13.9,13.9,0,0,0-.645,1.88m3.232,20.6c1.4,0.95,2.888,1.76,4.327,2.64,4.6,2.64,9.123,5.44,13.741,8.05-3.692-3.93-7.443-7.8-11.108-11.76-0.688-.72-1.5-1.68-2.6-1.44a47.277,47.277,0,0,0-4.36,2.51m-0.817,1.56c-0.033,1.72.112,3.44-.024,5.15a4.227,4.227,0,0,1-2.967,3.1c0.03,3.96.023,7.92,0,11.88,1.568,0.05,3.14.02,4.708,0.03,0.036-6.36,0-12.71.023-19.07-0.582-.36-1.158-0.73-1.743-1.09m-7.94,3.62c-3.844,2.34-7.793,4.51-11.584,6.93,5.23-1.16,10.377-2.69,15.587-3.95,0.953-.2,2.078-0.65,2.246-1.77,0.083-1.6,0-3.21-.02-4.81-2.127,1.1-4.138,2.43-6.229,3.6h0Z" transform="translate(-390 -2143.25)"/>
</svg>
