<svg id="Layer_1" data-name="Layer 1" xmlns="http://www.w3.org/2000/svg" viewBox="0 0 436.52 435.93"><path class="cls-1" d="M182.35,231.18A192.57,192.57,0,0,1,246,188.36c-.42,35.33,7.09,71.07,23.92,102.3,8.45,15.94,19.36,30.41,31,44.11,11.38,13.44,23.21,26.77,31.46,42.45,9.28,17.38,13.66,37,15,56.53,2.78,38.52-4.42,77-14.22,114.07-27.69-16.64-49.62-41.5-66.73-68.63-23.42-37.59-37.05-80.6-43.72-124.2-1.7-11.49-3.19-23-3.77-34.65a173.45,173.45,0,0,0-1.39-19.72,253.81,253.81,0,0,0-.37,39.67c1.31,42.61,8.77,85.35,24.92,124.94,14.78,36.11,36.79,69.82,66.57,95.32C270.5,557.2,233.54,542,203.46,518.29a202.1,202.1,0,0,1-77.15-152.48c0-49.91,20.79-99.34,56-134.63Z" transform="translate(-103.26 -141.54)"/><path class="cls-1" d="M539.58,352.81a216.12,216.12,0,0,0-26.32-97.36,218,218,0,0,0-207.43-113.3c-56,3.68-110,30.43-147.14,72.47a216.34,216.34,0,0,0-47.45,87.29c-5.6,19.46-7.71,39.74-8,59.93a98.67,98.67,0,0,0,1-11,219.5,219.5,0,0,1,8.57-44.13,210.48,210.48,0,0,1,67.37-99.63,208.3,208.3,0,0,1,78.64-40.23,211.07,211.07,0,0,1,81-5.17A206.92,206.92,0,0,1,443.9,206.55c-9.85,7.41-20.08,14.45-31.06,20.08-3.35-1.79-6.2-4.34-9.43-6.32-16.43-10.65-34.54-19-53.7-23.22,15.69,7.59,30.9,16.31,44.6,27.15,2.91,2.44,6.21,4.5,8.58,7.52-10,5.36-20.72,9-31.2,13.19-4.86.91-9.35,3.26-14.31,3.77a30.54,30.54,0,0,0-4.15-5.25C342.75,232.33,330.3,222.78,316,217a135,135,0,0,1,29.53,29.25c1.22,1.8,3.16,3.5,2.87,5.9-1.93-.48-3.83.29-5.7.63-11.82,2.82-23.9,4.33-36,5.6A232.54,232.54,0,0,0,348,254.23a11,11,0,0,1,3.66.15c5.88,10.57,12,21.05,16.47,32.33a273.08,273.08,0,0,1,18.07,67.19,282.9,282.9,0,0,1-36.38,5.49c11.43.35,22.84-1,34.09-2.88l2.58-.46a333.07,333.07,0,0,1-.29,95.06c-3,.5-6.33.47-9,2.17,2.89,0,5.77-.21,8.66-.41a281,281,0,0,1-23,78.12c4.68-5.24,8.32-11.3,11.93-17.3,11.31-19.4,19-40.77,23.76-62.67,7.78-1.55,15.61-2.88,23.29-4.93a281,281,0,0,0,44.26-15c-7,30.41-22.29,58.44-41.55,82.8a41.94,41.94,0,0,0,7.36-6.06,177.1,177.1,0,0,0,48.57-82.12c.34-2.22,2.69-2.95,4.34-4C497,415.2,508.34,407.2,519.3,398.8A209.45,209.45,0,0,1,373.78,568.62a201.52,201.52,0,0,1-51.1,8.72c18.83.78,37.73-2.06,55.85-7.13,46.63-12.14,88.55-41,117.45-79.43C525.43,451.8,541.81,403.65,539.58,352.81Zm-149.24,73c-.11-16-.22-31.95,0-47.92C390.5,393.82,390.61,409.8,390.34,425.77Zm-4.48-130.2c-6.28-14.63-13.77-28.94-23.82-41.36l-1.52-2.46c5.61-1.38,11.2-2.82,16.73-4.49a256.91,256.91,0,0,0,30.93-11.17,203.38,203.38,0,0,1,55.2,87A254.92,254.92,0,0,1,407.47,348c-.85.26-1.7.54-2.54.81l-3.68,1.11C398,331.34,393.21,313,385.86,295.57Zm82.23,127.32a269.06,269.06,0,0,1-52.26,21.28c-5.55,1.55-11.15,3-16.76,4.29,5.47-25.79,6.63-52.4,4.54-78.64-.32-5.61-1.6-11.15-1.47-16.78,4-1,8.08-2,12.09-3.06a255.9,255.9,0,0,0,51.1-19.85A199.67,199.67,0,0,1,468.09,422.89ZM449.25,263.33c-8.84-11.89-19.41-22.37-30.57-32.07a230.39,230.39,0,0,0,32.16-19A211.4,211.4,0,0,1,505,287.55c.31,1.06,1.27,2.54.09,3.44a218.43,218.43,0,0,1-28.42,23.61A189.19,189.19,0,0,0,449.25,263.33ZM521.06,381.8c0,2.19-1.91,3.55-3.27,5a219.74,219.74,0,0,1-34.48,27,190.49,190.49,0,0,0-4.15-91.31A237.31,237.31,0,0,0,507.93,302c.58-.55,2.35-1.86,2.45-.16A210.41,210.41,0,0,1,521.06,381.8Z" transform="translate(-103.26 -141.54)"/></svg>