<svg xmlns="http://www.w3.org/2000/svg" width="117" height="100" viewBox="0 0 117 100">
  <defs>
    <style>
      .cls-1 {
        fill: #0d1c25;
        fill-rule: evenodd;
      }
    </style>
  </defs>
  <path id="icon" class="cls-1" d="M823.323,2686.67c0.448-.05.9-0.09,1.357-0.11,5.464,8.68,10.729,17.49,16.117,26.21a25.414,25.414,0,0,0,4.777.27c8.758,0,17.511.18,26.269,0.15a1.911,1.911,0,0,1,.72,1.74,18.1,18.1,0,0,1-4.187.89c-8.084,1.22-16.165,2.47-24.253,3.68a2.748,2.748,0,0,0-1.382,2.19q0.738,26.355,1.512,52.71c0.113,3.34.113,6.7,0.337,10.04,2.964-.01,5.927,0,8.891,0,0,0.69.011,1.39,0.015,2.1q-48.8.045-97.6,0.01c0-.72,0-1.42.014-2.12q4.38,0.015,8.765,0c-0.033-2.17-.011-4.34-0.015-6.51-3.032,0-6.065.01-9.1,0,2.612-10.11,5.341-20.19,7.914-30.31,5.106-.04,10.212-0.02,15.318-0.01-1.382,10.1-2.678,20.21-4.01,30.32h-8.008c-0.022,2.17-.018,4.35,0,6.52,7.491-.02,14.978.01,22.469-0.01-0.007-2.17-.011-4.34.011-6.5-3.5-.02-7.006,0-10.509-0.01,1.335-10.11,2.631-20.23,4.006-30.34,5.037,0.04,10.074-.03,15.112.04,1.176,10.11,2.725,20.18,3.868,30.3-3.459,0-6.915.01-10.371-.01,0.007,2.17-.011,4.35,0,6.52,7.643,0.02,15.286-.01,22.925.01,0.022-2.17.015-4.35,0.011-6.52-2.859-.01-5.718.03-8.573-0.03-1.219-10.11-2.71-20.18-3.893-30.3,5.073,0.01,10.146-.03,15.22.03,2.587,10.11,5.327,20.18,7.914,30.29-2.862.02-5.725,0.01-8.587,0,0,2.18-.011,4.35.011,6.53,6.036-.01,12.068,0,18.1-0.01,0.489-18.98,1.115-37.96,1.607-56.95,0.029-1.04.029-2.09,0-3.13-5.247,4.98-10.769,9.67-16.111,14.55-1.143.94-2.156,2.05-3.361,2.92a1.083,1.083,0,0,1-1.021-1.85q9.591-11.865,19.237-23.68-5.7-13.8-11.381-27.61a3.193,3.193,0,0,1-.144-2.01m7.186,13.15c0.04,0.21.123,0.63,0.163,0.84,1.8,4.39,3.626,8.76,5.41,13.15,0.7-.42,1.408-0.82,2.146-1.18-2.515-4.3-5.312-8.45-7.719-12.81m8.2,14.93a2.733,2.733,0,1,0,3.456,3.3,2.744,2.744,0,0,0-3.456-3.3m5.692,2.57c4.571-.61,9.105-1.48,13.694-1.96-4.734-.25-9.481-0.2-14.222-0.28,0.185,0.74.369,1.48,0.528,2.24m-18.832,13.75c3.623-3.24,7.245-6.47,10.849-9.73-0.441-.64-0.864-1.29-1.346-1.89-3.286,3.77-6.343,7.74-9.5,11.62m12.814-8.9c-0.47,13.04-.687,26.09-1.187,39.11-0.13,7.73-.477,15.44-0.582,23.16,1.947-.01,3.9.01,5.848-0.02-0.377-14.03-.912-28.06-1.162-42.09l-0.145-.22c-0.043-6.64-.369-13.28-0.5-19.92-0.764,0-1.524,0-2.277-.02m-74.893,33.75c4.02,0.02,8.041.01,12.058,0.01,0.3-2.11.568-4.22,0.807-6.33-3.731-.01-7.462,0-11.19-0.01q-0.856,3.165-1.675,6.33m21.126-6.34c-0.322,2.11-.648,4.22-0.85,6.35,4.346-.06,8.7.13,13.038-0.1-0.344-2.08-.478-4.19-0.923-6.25-3.756.01-7.512,0.04-11.265,0m20.356,6.34c4.016,0.03,8.033,0,12.05.02-0.5-2.13-1.089-4.23-1.65-6.34q-5.613-.015-11.222,0c0.3,2.1.525,4.21,0.822,6.32m-42.072,2.17c-0.34,1.36-.684,2.72-1.082,4.08,4.306,0.01,8.613,0,12.923,0,0.159-1.36.383-2.71,0.524-4.07-4.118-.14-8.247-0.12-12.365-0.01m20.573,0c-0.257,1.36-.373,2.73-0.5,4.11,4.882-.06,9.76-0.02,14.642-0.02-0.181-1.35-.384-2.7-0.478-4.06-4.549-.19-9.116-0.13-13.664-0.03m21.759,0.03c0.221,1.35.384,2.71,0.619,4.06,4.277-.02,8.558,0,12.839,0-0.365-1.36-.72-2.71-1.042-4.06-4.133-.17-8.283-0.16-12.416,0m-44,6.25c-0.289,1.35-.662,2.69-1.024,4.03,4.585,0,9.174.03,13.759-.01,0.115-1.37.311-2.72,0.514-4.07-4.415.01-8.834-.07-13.249,0.05m21.34-.02c-0.1,1.35-.275,2.7-0.463,4.06h16.324c-0.159-1.38-.373-2.73-0.51-4.09-5.117.01-10.234-.06-15.351,0.03m23.565-.04a39.2,39.2,0,0,0,.525,4.1c4.552-.02,9.1,0,13.653,0-0.329-1.37-.709-2.72-1.045-4.07-4.375-.06-8.754-0.02-13.133-0.03m-46.479,6.19c-0.438,1.76-.959,3.49-1.317,5.26,4.878,0.04,9.752,0,14.63.02,0.178-1.76.456-3.51,0.674-5.27-4.665-.01-9.326.01-13.987-0.01m22.143,0.03c-0.174,1.75-.488,3.49-0.608,5.25,6.083,0,12.163.01,18.242-.01q-0.4-2.625-.7-5.25c-5.642-.01-11.287-0.04-16.929.01m25.107-.02c0.174,1.75.51,3.48,0.651,5.24,4.9,0.07,9.807,0,14.71.04-0.455-1.76-.93-3.52-1.375-5.28-4.664-.01-9.325,0-13.986,0h0Zm-27.6-57.93a3.64,3.64,0,0,1,1.462-.3c0.131,0.17.391,0.5,0.521,0.67,0.018,0.98.011,1.96,0,2.95-0.131.17-.387,0.5-0.514,0.67a2.568,2.568,0,0,1-1.6-.51,25.937,25.937,0,0,1,.134-3.48h0Zm-7.643,3.06c1.361-.42,2.15.87,2.971,1.71,0.464,0.36.239,0.99,0.286,1.51-0.264.11-.792,0.34-1.06,0.45a22.826,22.826,0,0,1-2.2-1.97c-0.09-.19-0.275-0.56-0.365-0.75l0.372-.95h0Zm16.093-.05a1.03,1.03,0,0,1,1.165,1.56,16.657,16.657,0,0,1-2.247,2.18c-0.246-.11-0.738-0.33-0.984-0.43-0.083-.24-0.243-0.72-0.322-0.96a10.991,10.991,0,0,1,2.388-2.35h0Zm-9.749,2.94a6.231,6.231,0,1,1-3.977,7.85,6.289,6.289,0,0,1,3.977-7.85m0.8,1.95a4.14,4.14,0,0,0-.293,7.85,4.117,4.117,0,1,0,.293-7.85h0Zm9.329,3.23a10.919,10.919,0,0,1,3.651-.33,1.611,1.611,0,0,1,.445,1.7c-0.521.58-1.346,0.37-2.033,0.43-0.677-.06-1.484.14-2-0.4a10.822,10.822,0,0,1-.058-1.4h0Zm-14.508,6.04a8.848,8.848,0,0,1,1.249.15c0.007,0.51.007,1.04-.033,1.56-0.789.67-1.5,1.41-2.308,2.06l-0.923-.44c-0.1-.22-0.293-0.67-0.387-0.89a11.975,11.975,0,0,1,2.4-2.44h0Zm11.685,0.99a1.461,1.461,0,0,1,1.752-.97c0.792,1,2.345,1.77,1.943,3.28-0.239.1-.72,0.31-0.959,0.41l-0.727-.4c-0.5-.53-1.006-1.04-1.524-1.54-0.123-.2-0.365-0.59-0.485-0.78h0ZM779.25,2733a1.1,1.1,0,0,1,1.99-.05c0.12,1.02.04,2.06,0.062,3.1a1.283,1.283,0,0,1-1.969.16,9.966,9.966,0,0,1-.083-3.21h0Z" transform="translate(-755.563 -2686.56)"/>
</svg>
