<svg id="Layer_1" data-name="Layer 1" xmlns="http://www.w3.org/2000/svg" viewBox="0 0 261.89 202.21"><path class="cls-1" d="M249.79,133.19c1.77-1.07,4.38-2.13,6.13-.51,3.12,3.72,4.83,8.38,7.58,12.35,12.89.57,25.85-.11,38.76.32,1.86.07,2.77,1.82,3.67,3.19,6.19,10.49,12.2,21.08,18.27,31.64,12.65,0,25.3-.06,37.95,0,2.54-.27,4.09,2.09,5.19,4,2.22,4.09,4.74,8,6.84,12.18a45.07,45.07,0,0,1-7.65,4c-2-3.91-4.36-7.59-6.39-11.46-12,0-24-.25-36,.1-5.52,10.36-11.66,20.38-17.49,30.57,5.89,10.17,11.88,20.27,17.59,30.54,7.41.16,14.83.09,22.25.06,0,2.93.05,5.87.06,8.81-7.46,0-14.92-.08-22.37.05-5.46,9.94-11.32,19.66-16.93,29.51a27.93,27.93,0,0,1-3.75,5.28c-13.3.15-26.59.06-39.89.06-2.19,3.84-4.32,7.71-6.61,11.48-1.1,2.32-4.08,2.11-6.13,1.43a26.08,26.08,0,0,1-2.21-3.34c1.64-4.57,4.54-8.5,6.82-12.73.74-1,.15-2.19-.4-3.11-5.55-9.59-11.22-19.11-16.62-28.79-4.82,0-9.64-.15-14.45,0-2.85-1.2-2.94-4.15-2.55-6.8.85-.64,1.72-1.27,2.59-1.9,4.84-.11,9.68-.06,14.53-.11,5.61-10.25,12-20.13,17.27-30.51-5.48-10.33-11.65-20.31-17.41-30.5-4.86-.17-9.76.39-14.57-.26-3.05-.92-2.6-4.38-2.39-6.84,5.17-3.23,11.5-.77,17.17-1.91,5.53-10.25,12-20.07,17.19-30.46-1.91-4.57-5.09-8.51-7.09-13,.35-1.12.72-2.24,1.08-3.36m13.41,21c-4.95,9.93-11,19.25-16.4,29-1.35,1.65.34,3.36,1,4.91,5.31,8.95,10.34,18.07,15.66,27,11.89.55,23.85.12,35.78.2,5.64-10.34,11.81-20.39,17.51-30.7C310.88,174.39,305,164.25,299.2,154c-12,0-24-.27-36,.13M246,254.6c5.22,9.38,10.73,18.59,16,27.93.8,1.13,1.28,3.09,3.08,2.7,11.39,0,22.79.17,34.18-.11,5.69-10.29,11.82-20.32,17.5-30.62C310.91,244.34,305,234.21,299.21,224c-11.88-.08-23.75,0-35.63-.05-5.82,10.23-11.85,20.35-17.61,30.63Z" transform="translate(-221.25 -131.85)"/><path class="cls-1" d="M371.82,141.22a21.67,21.67,0,0,1,7.3-.95c18,.11,36-.07,54.06.08a4.3,4.3,0,0,1,4.29,5.24c-2.91,6-8,10.89-10.78,17-.12,15,0,29.94,0,44.91.2,5.64-.42,11.35.28,17,15.82,24.56,31.95,48.94,47.86,73.44,3.3,5.17,7.52,10.21,8.16,16.55,1.09,6.31-2.45,12.81-8,15.8-6.25,3.8-13.8,4-20.89,3.79q-51.49,0-103,0a34,34,0,0,1-17-3.44c-5-2.73-9-8.07-8.65-14-.23-6.86,4.18-12.53,7.75-18q23.19-35.36,46.25-70.8c.94-1.65,2.53-3.16,2.41-5.2,0-21,.07-41.9-.06-62.84,2.91,0,5.82,0,8.74,0-.15,22.27.22,44.57-.18,66.83-3,5.57-6.86,10.61-10.17,16Q359.63,274,339.07,305.51c-3.13,4.41-7.52,11.19-2.88,16,3.58,2.92,8.37,3.77,12.88,3.76q55.55,0,111.09,0c5.44,0,11.54-1.63,14.38-6.71.46-6.41-4.07-11.3-7.25-16.33-7.35-11.42-15-22.65-22.13-34.2-19.37-.29-38.74,0-58.11-.13a14.81,14.81,0,0,1-4.3-1.16c-1-2.95-.81-7.12,3.09-7.48,17.74-.22,35.5.06,53.25-.14-5.7-8.84-11.49-17.64-17.23-26.46-1.8-2.8-4.25-5.6-3.94-9.17,0-18.67,0-37.34,0-56,.05-3.13-.43-6.43.85-9.38,1.85-3.15,4.16-6,6.13-9.06-16.81-.17-33.63.17-50.42-.16-3.78-.4-4.12-5-2.64-7.69Z" transform="translate(-221.25 -131.85)"/><path class="cls-1" d="M264.9,168.41c1.2-1.93,2.43-4.79,5.21-4.39,2.67-.33,3.75,2.53,4.51,4.53-2.94,5.57-6.07,11.06-9.32,16.45-1.48,2.25-4.41,1.58-6.55.87-.58-1.73-1.92-3.58-.7-5.35,2-4.21,4.69-8,6.85-12.11Z" transform="translate(-221.25 -131.85)"/><path class="cls-1" d="M332.61,197.1c3.81-.39,7.65-.06,11.48-.17,3.21,0,6.63-.46,9.6,1.13,1.36,2.77,1,6.9-2.65,7.43-6.67.09-13.5.8-20.07-.62l-1.45-2.32c-.07-2.23.74-4.74,3.09-5.45Z" transform="translate(-221.25 -131.85)"/><path class="cls-1" d="M259,252.17c1.54-.14,3.14-.63,4.69-.13,1.7,1,2.51,2.94,3.51,4.58,2.49,4.65,5.67,9,7.49,13.95a35.4,35.4,0,0,1-2.42,3.27c-1.67.71-3.49.19-5.18,0-2.95-5.19-6.05-10.3-9-15.49-1.48-2,.14-4.23.89-6.16Z" transform="translate(-221.25 -131.85)"/><path class="cls-1" d="M390.8,296.81c-4.12-3.13-2.85-10.7,2.32-11.94,4.23-1.4,9.36,2,8.9,6.61.29,2.81-1.79,4.89-3.78,6.5-2.52.2-5.4.72-7.44-1.17Z" transform="translate(-221.25 -131.85)"/><path class="cls-1" d="M435.35,293.75c2.46-1.62,5.6-.8,8.09.37,1.72,2.4,3.19,5.49,1.73,8.4-1.62,4.35-8.05,5.35-11.15,2.08-1.54-1.27-1.71-3.38-2.37-5.11.83-2.12,1.46-4.66,3.7-5.74Z" transform="translate(-221.25 -131.85)"/><path class="cls-1" d="M365.51,308.61c-.46-3.77,1.5-8.19,5.54-8.9,4.13-1.12,8.85,2.45,8.62,6.76.35,4.76-5.26,8.66-9.57,6.66-2.21-.64-3.28-2.86-4.59-4.52Z" transform="translate(-221.25 -131.85)"/></svg>