<svg xmlns="http://www.w3.org/2000/svg" width="38" height="50" viewBox="0 0 38 50">
  <defs>
    <style>
      .cls-1 {
        fill: #004168;
        fill-rule: evenodd;
      }
    </style>
  </defs>
  <path id="icon" class="cls-1" d="M949.974,5715c2.54,0.01,5.079,0,7.619.01,0,1.29,0,2.59,0,3.88-0.626,0-1.25-.01-1.871-0.01,0-.62-0.007-1.25.006-1.87-1.3-.06-2.592-0.01-3.886-0.02,0,0.64,0,1.27-.014,1.9q-0.929-.015-1.851,0c-0.013-1.3-.02-2.59,0-3.89h0Zm-8.647,8.95a3.259,3.259,0,0,1,3.283-3.35c10.4,0,20.8-.02,31.2,0a3.36,3.36,0,0,1,2.982,4.37,3.537,3.537,0,0,1-2.154,2.29q0,6.135,0,12.28a3.475,3.475,0,0,1,0,6.76c0,4,.008,8,0,12a3.588,3.588,0,0,1,2.205,2.46,3.379,3.379,0,0,1-3.028,4.23q-15.6.015-31.2,0a3.264,3.264,0,0,1-3.243-2.87,3.383,3.383,0,0,1,3.019-3.92c1.849-.03,3.7-0.01,5.55-0.01,0.129,0.07.381,0.19,0.509,0.25a1.09,1.09,0,0,1-.535,1.7c-1.925.06-3.854,0-5.778,0.03a1.8,1.8,0,0,0-.916,1.48,1.491,1.491,0,0,0,1.61,1.42h30.525a1.494,1.494,0,0,0,1.687-1.44,1.888,1.888,0,0,0-.884-1.46,18.351,18.351,0,0,1-2.971-.11,1.133,1.133,0,0,1-.314-1.67,6.1,6.1,0,0,1,1.9-.23c-0.007-3.94-.026-7.88.011-11.81a12.354,12.354,0,0,1-1.825-.15,1.364,1.364,0,0,1-.252-1.26,5.612,5.612,0,0,1,.522-0.56c1.08-.05,2.17.06,3.247-0.07a1.5,1.5,0,0,0,.148-2.7c-1.114-.38-2.335.02-3.472-0.24a1,1,0,0,1-.485-1.15c0.239-.99,1.412-0.53,2.122-0.75-0.051-4.01-.018-8.03-0.016-12.05a5.41,5.41,0,0,1-1.92-.25,1.161,1.161,0,0,1,.321-1.66,29.151,29.151,0,0,1,2.962-.11,2.089,2.089,0,0,0,.887-1.24,1.427,1.427,0,0,0-1.429-1.63q-15.38,0-30.759,0a1.41,1.41,0,0,0-1.48.84,1.456,1.456,0,0,0,1.276,2.05c1.786,0.02,3.573,0,5.36.01l0.487,0.28a1.175,1.175,0,0,1-.518,1.7c-1.362-.03-2.725-0.02-4.085.01,0.017,3.18,0,6.37.008,9.56q-0.948.015-1.893,0c0.029-3.21.007-6.43,0.013-9.65a3.376,3.376,0,0,1-2.668-3.38h0Zm19.057,8.87a0.972,0.972,0,0,1,1.151.4c0.931,2.6,2.835,4.65,4.5,6.78a9.324,9.324,0,0,1,1.776,7.62,6.952,6.952,0,0,1-3.469,4.65,7.52,7.52,0,0,1-9.21-1.6,8.037,8.037,0,0,1-1.365-7.29,11.461,11.461,0,0,1,2.687-4.65,20.171,20.171,0,0,0,3.482-5.5,0.536,0.536,0,0,1,.451-0.41m0.27,3.41a56.95,56.95,0,0,1-3.723,5c-1.572,2.08-2.216,5.16-.8,7.5a5.49,5.49,0,0,0,6.393,2.22,5.108,5.108,0,0,0,3.352-3.53,7.291,7.291,0,0,0-1.6-6.53,46.068,46.068,0,0,1-3.475-4.69c-0.038.01-.108,0.02-0.144,0.03h0Zm-19.322,6.66a3.252,3.252,0,0,1,3.046-3.33c1.838,0,3.676-.03,5.515.02,0.944,0.01,1.03,1.59.157,1.82-1.887.14-3.785-.03-5.672,0.08a1.473,1.473,0,0,0-1.082,1.91,1.4,1.4,0,0,0,1.3.97c1.8,0.05,3.606-.07,5.4.05a1.132,1.132,0,0,1,.4,1.74,28.8,28.8,0,0,1-4.552.19c0.042,3.2.006,6.4,0.017,9.6h-1.887c0.025-3.21,0-6.43.016-9.64a3.415,3.415,0,0,1-2.67-3.41h0Zm15.984,1.95a1.211,1.211,0,0,1,1.268-.67,1.517,1.517,0,0,1,.783,1.43,2.516,2.516,0,0,0,1.433,1.79,1.179,1.179,0,0,1-.422,1.7h-0.589a4.921,4.921,0,0,1-2.473-4.25h0Z" transform="translate(-941.313 -5715)"/>
</svg>
