<svg xmlns="http://www.w3.org/2000/svg" width="43" height="50" viewBox="0 0 43 50">
  <defs>
    <style>
      .cls-1 {
        fill: #004168;
        fill-rule: evenodd;
      }
    </style>
  </defs>
  <path id="icon" class="cls-1" d="M957.416,5865.8a1.191,1.191,0,0,1,.9-0.69c1.609-.03,3.22-0.04,4.829.02a2.516,2.516,0,0,1,.565,1.91,9.055,9.055,0,0,1,5.174,3.8,11.664,11.664,0,0,1,1.653,6.24,4.082,4.082,0,0,0,.4,1.91,10.576,10.576,0,0,0,1.113-.22c0.226,0.06.454,0.14,0.684,0.21a1.167,1.167,0,0,1-.024,1.35,11.684,11.684,0,0,1-3.031,1.22,14.165,14.165,0,0,1-4.148,10.86,7.375,7.375,0,0,1-5.074,2.03,7.594,7.594,0,0,1-4.936-1.98,12,12,0,0,1-3.245-5.07,6.444,6.444,0,0,1-.523-3.47,1.622,1.622,0,0,1,1.409-.08,29.686,29.686,0,0,0,1.37,4.23,7.879,7.879,0,0,0,4.333,4.23,5.457,5.457,0,0,0,5.492-1.32c2.427-2.24,3.416-5.65,3.574-8.9a50.883,50.883,0,0,1-6.627.69,30.22,30.22,0,0,1-12.977-2.37,1.432,1.432,0,0,1,.032-1.43c0.228-.08.457-0.14,0.689-0.21a2.908,2.908,0,0,0,1.132.18,3.667,3.667,0,0,0,.308-1.41,12.348,12.348,0,0,1,1.8-6.83,9.121,9.121,0,0,1,5.112-3.68c0.013-.41.021-0.82,0.021-1.22m1.261,11.06c-0.6-.03-1.2-0.05-1.8-0.08,0.086-2.57.32-5.14,0.388-7.71a6.8,6.8,0,0,0-3.884,3.39,11.212,11.212,0,0,0-1.054,5.28,5.108,5.108,0,0,1-.5,2,32.691,32.691,0,0,0,17.417,0,4.867,4.867,0,0,1-.489-2.02,11.1,11.1,0,0,0-1.21-5.52,6.4,6.4,0,0,0-3.783-3.11c0.184,2.56.31,5.13,0.439,7.7-0.605.02-1.208,0.05-1.811,0.05-0.169-3.27-.378-6.54-0.521-9.81a15.031,15.031,0,0,0-2.6-.11c-0.272,3.3-.38,6.62-0.591,9.94h0Zm-6.789,17.8a1.082,1.082,0,0,1,1.31.39c0.957,1.87,1.853,3.78,2.772,5.68a2.673,2.673,0,0,1,.27-0.06c1.153-1.38,2.336-2.72,3.491-4.09a0.866,0.866,0,0,1,1.36-.14c1.291,1.37,2.482,2.83,3.7,4.26h0.3c0.746-1.76,1.644-3.44,2.444-5.17a3.393,3.393,0,0,1,.649-0.95,58.892,58.892,0,0,1,7.862,1.67,6.03,6.03,0,0,1,3.9,3.14,11.7,11.7,0,0,1,1.33,5.04c0.255,3.24.485,6.49,0.717,9.74a1.136,1.136,0,0,1-.894.89c-0.234-.09-0.468-0.18-0.7-0.26a9.282,9.282,0,0,1-.384-2.62c-0.154-2.65-.411-5.3-0.575-7.96a7.9,7.9,0,0,0-2.212-5.3,3.182,3.182,0,0,0-1.474-.81c-2.216-.58-4.44-1.14-6.694-1.54-0.911,2.01-1.931,3.98-2.867,5.98a1.288,1.288,0,0,1-.894.97,1.082,1.082,0,0,1-1.153-.85,14.774,14.774,0,0,0-1.272,1.37c0.31,3.38.833,6.74,1.206,10.11-0.055.87-.967,0.9-1.6,0.71a15.632,15.632,0,0,1-.561-3.31c-0.187-1.79-.487-3.56-0.626-5.35a1.749,1.749,0,0,1-1.56-.17c-0.272,2.57-.639,5.13-0.932,7.7a2.526,2.526,0,0,1-.28,1.01,6.491,6.491,0,0,1-.846.36c-0.253-.21-0.5-0.42-0.742-0.62,0.154-2.58.622-5.13,0.877-7.69a16.719,16.719,0,0,0,.249-2.76,7.638,7.638,0,0,0-1.252-1.37,1.09,1.09,0,0,1-.781.85,0.992,0.992,0,0,1-1.117-.73c-1.02-2.07-1.986-4.18-3.036-6.23a73.235,73.235,0,0,0-7.158,1.74c-1.914.86-2.755,3.09-3.072,5.06-0.329,3.52-.525,7.05-0.8,10.57a0.946,0.946,0,0,1-.645,1.02,1.084,1.084,0,0,1-1.206-.54c0.2-3.37.487-6.73,0.719-10.1a11.319,11.319,0,0,1,1.621-5.4,5.967,5.967,0,0,1,3.165-2.52c2.435-.69,4.9-1.25,7.383-1.72m6.281,6.56c0.7,0.97,1.579,1.8,2.3,2.76,0.711-.7,1.3-1.51,1.984-2.24,0.123-.18.435-0.42,0.226-0.64-0.628-.9-1.463-1.62-2.1-2.51a28.6,28.6,0,0,0-2.416,2.63h0Z" transform="translate(-939 -5865.09)"/>
</svg>
