<svg id="Layer_1" data-name="Layer 1" xmlns="http://www.w3.org/2000/svg" viewBox="0 0 190.71 233.14"><defs><style>.cls-1{fill:#323e4a;}</style></defs><title>icon4</title><path class="cls-1" d="M327.59,242.94c4-1.4,8.33-.8,12.52-.89,4.32.11,8.68-.29,13,.22,3.35,1.55,2.7,5.51,2.85,8.53,7,2.44,13.78,5.68,19.1,10.93,8.71,8.52,12.87,20.76,13.53,32.74.27,3.69-.42,7.73,1.47,11.12,2.4,1.65,5.6-.47,8.37.36a8.75,8.75,0,0,1,1.4,6.25c-4.47,3.26-10,4.48-15.18,6.15.28,15.11-3.68,30.58-12.72,42.84-5.62,7.59-13.45,13.92-22.78,16.13a35.48,35.48,0,0,1-31.1-7.67c-11.15-9.57-17.64-23.85-19.43-38.28l1.52-2.1c1-.4,2-.78,3-1.14,1.06.41,2.13.83,3.22,1.27,2,6.52,3.2,13.36,6.44,19.47,4.63,9.4,12.64,18.15,23.32,20.23,9.15,2.13,18.79-2,25.06-8.65C371.27,349.91,375.87,335,376,320.67c-25.32,5-51.86,4.82-76.84-1.88-5.66-1.82-11.74-3.05-16.62-6.6a8.12,8.12,0,0,1,1.4-6.21,26.5,26.5,0,0,1,7.27.36c2.37-1.29,2.23-4.52,2.44-6.84-.2-13.2,3.42-27.1,12.76-36.83,5.39-5.76,12.57-9.31,19.94-11.84a18.69,18.69,0,0,1,1.27-7.89m7.25,7.9c-.52,15.36-1.85,30.67-2.4,46q-4.41-.18-8.78-.51c.7-12,1.58-23.92,2-35.89C314.69,264,306.42,273.87,303.93,285c-2.46,8.2-.4,17.1-3.81,25.08a133.68,133.68,0,0,0,22.09,4.29c20,2,40.6,1.26,60-4.3-3.45-8-1.35-16.88-3.86-25.06-2.44-11.17-10.77-21-21.69-24.58.44,12,1.22,24,1.95,35.94q-4.41.3-8.8.47c-.46-15.36-1.82-30.67-2.36-46-4.22-.11-8.44-.12-12.65,0Z" transform="translate(-245.81 -242)"/><path class="cls-1" d="M279.15,387.51c9.31-2,18.66-3.82,28.08-5.3,3.24-.41,6.52-1.57,9.82-1,2.05.85,2.8,3.24,2.66,5.31,0,4.08,0,8.17,0,12.27,13.87,4.86,28.95,3.36,42.95-.08.14-4.71-.19-9.42.12-14.1a4.17,4.17,0,0,1,5.36-3.48c10.06,1.6,20.14,3.22,30.11,5.38a50.13,50.13,0,0,1,25.25,11.72c8.33,7.31,12.76,18.32,13,29.3.06,15.85,0,31.7,0,47.56q-4.39,0-8.76,0c0-14.51,0-29,0-43.52.09-5.46-.3-11.07-2.55-16.11-3.23-8.16-10.42-14.23-18.39-17.53-5.18-2.29-10.83-3-16.32-4.09.07,13.31-.22,26.63.14,39.94,3.71-.07,7.42-.05,11.14,0,0,13.78,0,27.56,0,41.34q-4.29,0-8.56,0c-.15-11,.22-22-.29-32.94q-5.65.07-11.3,0c.15-16.69.06-33.37.05-50.05-3.44-.64-6.88-1.26-10.34-1.61-.05,12.67,0,25.35,0,38-.1,4,.54,8.12-.91,12L368,441.72c-14.95.11-29.89,0-44.84,0-3.79-.06-7.71.44-11.29-1.07-1.39-3.93-.92-8.12-1-12.18,0-12.67.05-25.34,0-38-3.47.36-6.9,1-10.32,1.61,0,16.69-.06,33.38,0,50.08-3.73,0-7.46,0-11.17-.1q-.63,12.67-.12,25.4a55.84,55.84,0,0,1-.36,7.63c-2.81-.08-5.62-.09-8.42-.05,0-13.78,0-27.56,0-41.34,3.71-.06,7.43-.07,11.16,0,.39-13.32.09-26.65.15-40-9.51,1.53-19.54,3.79-26.76,10.63-6.77,5.64-10.42,14.45-10.45,23.18-.09,15.82,0,31.64-.05,47.46q-4.4,0-8.76,0c.09-15.51,0-31,0-46.53.18-7.5,1.78-15.14,5.78-21.57,6-9.95,16.46-16.55,27.53-19.43m40.55,20.4c0,8.39,0,16.78,0,25.18q21.49.11,43,0,0-12.74,0-25.45c-14.05,3.14-29,4.2-43,.28Z" transform="translate(-245.81 -242)"/></svg>