<svg id="Layer_1" data-name="Layer 1" xmlns="http://www.w3.org/2000/svg" xmlns:xlink="http://www.w3.org/1999/xlink" viewBox="0 0 512 511.99"><defs><style>.cls-1{fill:none;}.cls-2{clip-path:url(#clip-path);}.cls-3{fill:#231f20;}</style><clipPath id="clip-path" transform="translate(0 0)"><rect class="cls-1" width="512" height="511.99"/></clipPath></defs><title>icon6</title><g class="cls-2"><path class="cls-3" d="M397.91,73.19a8.85,8.85,0,0,1-5.25-1.73,227.45,227.45,0,0,0-136.32-45c-51.46,0-102.28,16.7-135.94,44.67a8.83,8.83,0,0,1-14.47-6.79V8.83a8.83,8.83,0,1,1,17.65,0v38c35.92-24,84.18-38,132.76-38A245,245,0,0,1,403.18,57.26a8.84,8.84,0,0,1-5.27,15.93" transform="translate(0 0)"/><path class="cls-3" d="M447.62,406.75a8.82,8.82,0,0,1-7.08-14.08,227.39,227.39,0,0,0,45-136.32c0-51.46-16.7-102.28-44.67-135.94a8.83,8.83,0,0,1,6.79-14.47h55.53a8.83,8.83,0,1,1,0,17.65h-38c24,35.91,38,84.18,38,132.76a245,245,0,0,1-48.43,146.83,8.9,8.9,0,0,1-7.12,3.57" transform="translate(0 0)"/><path class="cls-3" d="M397.23,512a8.82,8.82,0,0,1-8.82-8.83v-38c-35.92,24-84.18,38-132.76,38a245,245,0,0,1-146.83-48.43,8.83,8.83,0,0,1,10.51-14.19,227.42,227.42,0,0,0,136.33,45c51.46,0,102.27-16.7,135.93-44.67a8.83,8.83,0,0,1,14.47,6.79v55.52a8.83,8.83,0,0,1-8.83,8.83" transform="translate(0 0)"/><path class="cls-3" d="M64.36,406.06H8.83a8.83,8.83,0,1,1,0-17.65h38c-24-35.92-38-84.18-38-132.76A244.93,244.93,0,0,1,57.27,108.82a8.83,8.83,0,1,1,14.18,10.51,227.47,227.47,0,0,0-45,136.32c0,51.46,16.71,102.28,44.67,135.94a8.83,8.83,0,0,1-6.78,14.47" transform="translate(0 0)"/><path class="cls-3" d="M256,450.2C148.91,450.2,61.79,363.09,61.79,256S148.91,61.79,256,61.79,450.2,148.91,450.2,256,363.08,450.2,256,450.2m0-370.75C158.65,79.45,79.45,158.64,79.45,256S158.65,432.54,256,432.54,432.54,353.35,432.54,256,353.34,79.45,256,79.45" transform="translate(0 0)"/><path class="cls-3" d="M203.42,360.8c-10.88,0-43.88-4.16-55-53.06a117.28,117.28,0,0,1-2.72-26.65c0-9.65-1.22-33.43-13.82-46.09-5.65-5.66-12.94-8.45-22.28-8.53a66.8,66.8,0,0,1-37.64-9.33l-5.63-3.41,1.66-6.36C85.18,140.93,137.2,88,203.7,69.21l6.7-1.89,3.39,6.06c8.12,14.49,26.3,50.34,19.58,70.35-4.76,14.18-23.3,40.56-60.24,38.6a74.83,74.83,0,0,0-21,1.77,46.81,46.81,0,0,0-5.57,1.62c4.61,3.11,15.77,8.83,42.41,17.1.34.07,19.87,5.13,31.48,26.27a32.11,32.11,0,0,0,41.39,13.5,19.56,19.56,0,0,1,17.71.73,20.19,20.19,0,0,1,10.24,14.93c1.87,14.08.53,40.6-29.45,60.09a51.53,51.53,0,0,0-18,19.87A40.79,40.79,0,0,1,206,360.7c-.62.05-1.5.1-2.62.1m-94.72-152h.49c14.25,0,26.08,4.62,35.15,13.74,16.64,16.72,19,43.9,19,58.61a99.52,99.52,0,0,0,2.27,22.66c9.5,41.58,36,39.65,39,39.3l1.15-.07a23.21,23.21,0,0,0,20.89-12.8,69.3,69.3,0,0,1,24.15-26.72c16.66-10.82,23.92-25.27,21.58-42.95a2.43,2.43,0,0,0-1.28-1.8,2,2,0,0,0-1.84-.13c-23.6,10.77-51.8,1.52-64.18-21.06-7.77-14.15-20.3-17.65-20.83-17.8-48.84-15.15-58.34-24.78-58-35.45.44-12.36,16.59-16.18,21.89-17.42A91.3,91.3,0,0,1,174,164.71c32.71,1.76,42.51-26.3,42.59-26.59,2.94-8.73-4.87-30.59-14.88-49.87-55,17.92-98.15,61.8-114.82,116.78a48.81,48.81,0,0,0,21.3,3.84Z" transform="translate(0 0)"/><path class="cls-3" d="M391.2,395.93l-6.38-5.38c-19.45-16.38-26.12-40.91-19.28-70.92a22.9,22.9,0,0,0-12.24-25.49c-30-15.13-34.8-42.32-35-43.48-4.19-37.86,9.21-52.51,21.17-58.21,8.72-4.15,19.22-3.7,28.82,1.26,6.27,3.25,25.23,10.18,65.5,4.71l7.72-1.06,2,7.53a195.91,195.91,0,0,1-46.6,185Zm-39-188.64a11.77,11.77,0,0,0-5.09,1.09c-12.32,5.88-12.93,24.94-11.29,39.88.07.26,3.73,19.16,25.44,30.12a40.53,40.53,0,0,1,21.52,45.17c-4.51,19.79-2,35.69,7.42,47.4a178.32,178.32,0,0,0,38.1-154.07c-38.51,4.09-59-2.79-68.1-7.49a17.54,17.54,0,0,0-8-2.1" transform="translate(0 0)"/><path class="cls-3" d="M326.49,155.31c-13.86,0-25-7.84-30.22-13.82l-1.18-1.73c-13.56-26.15,16.05-49.3,25.78-56.91L329.1,76l5,2.2a195,195,0,0,1,46,28.45l9.79,8.14L375.44,123a58.67,58.67,0,0,0-13.89,12.73c-4.41,5.89-8.71,10-13.53,13a40.32,40.32,0,0,1-21.53,6.53m-16.24-24.72c3,2.92,14.06,12.15,28.44,3.21a33.31,33.31,0,0,0,8.75-8.64,69.93,69.93,0,0,1,12-12.2A177.13,177.13,0,0,0,331.92,96.6c-25.47,19.94-23.5,29.91-21.67,34" transform="translate(0 0)"/><path class="cls-3" d="M256,450.2a194.22,194.22,0,0,1-54.21-7.72l-7.13-2.08L196,428.08a60,60,0,0,1,60-59.45,42.47,42.47,0,0,1,42.36,35.75,102.2,102.2,0,0,0,8.41,28.16l4.73,9.87-10.65,2.53A195.25,195.25,0,0,1,256,450.2m-42.3-22.8a176.55,176.55,0,0,0,72.89,2.45,127.53,127.53,0,0,1-5.66-22.72c-1.89-11.89-12.6-20.86-24.93-20.86a42.37,42.37,0,0,0-42.3,41.13" transform="translate(0 0)"/></g></svg>