<svg xmlns="http://www.w3.org/2000/svg" width="33" height="33" viewBox="0 0 33 33">
  <defs>
    <style>
      .cls-1 {
        fill: #0fc5d3;
        fill-rule: evenodd;
      }
    </style>
  </defs>
  <path id="icon" class="cls-1" d="M456.031,4147.2a1.708,1.708,0,0,1,.559,1.24v6.45a1.922,1.922,0,0,1-1.8,1.8,30.631,30.631,0,0,1-15.726-4.21,30.285,30.285,0,0,1-11.258-11.26,30.63,30.63,0,0,1-4.211-15.72,1.919,1.919,0,0,1,1.805-1.81h6.445a1.921,1.921,0,0,1,1.805,1.81,24.229,24.229,0,0,0,.945,6.61,1.4,1.4,0,0,1-.344,1.81l-4.039,4.04a26.675,26.675,0,0,0,5.027,6.92,28.672,28.672,0,0,0,7.09,5.19l4.039-4.03a1.629,1.629,0,0,1,1.2-.52h0.6a18.752,18.752,0,0,0,6.617,1.12A1.7,1.7,0,0,1,456.031,4147.2Zm-27.285-12.85,2.149-2.24a30.625,30.625,0,0,1-.86-4.72h-2.75a30.155,30.155,0,0,0,1.461,6.96h0Zm24.149,15.72a21.474,21.474,0,0,1-4.727-.68l-2.234,2.15A30.79,30.79,0,0,0,452.9,4153v-2.93Zm-11-11.68v-11h2.75v6.36l10.14-10.06,1.8,1.81-10.055,10.14h6.36v2.75h-11Z" transform="translate(-423.594 -4123.69)"/>
</svg>
