<svg id="Layer_1" data-name="Layer 1" xmlns="http://www.w3.org/2000/svg" xmlns:xlink="http://www.w3.org/1999/xlink" viewBox="0 0 512 512"><defs><style>.cls-1{fill:none;}.cls-2{clip-path:url(#clip-path);}.cls-3{fill:#231f20;}</style><clipPath id="clip-path" transform="translate(0 0)"><rect class="cls-1" width="512" height="512"/></clipPath></defs><title>icon8</title><g class="cls-2"><path class="cls-3" d="M384,375.46H358.4a8.53,8.53,0,0,1,0-17.06H384a8.53,8.53,0,0,1,0,17.06" transform="translate(0 0)"/><path class="cls-3" d="M409.6,512a59.73,59.73,0,1,1,59.73-59.73A59.8,59.8,0,0,1,409.6,512m0-102.4a42.67,42.67,0,1,0,42.67,42.67A42.72,42.72,0,0,0,409.6,409.6" transform="translate(0 0)"/><path class="cls-3" d="M418.31,477.87H400.88A16.91,16.91,0,0,1,384,461V443.55a16.91,16.91,0,0,1,16.89-16.88h17.43a16.91,16.91,0,0,1,16.88,16.88V461a16.91,16.91,0,0,1-16.89,16.88m-.18-34.32-17.24.18.18,17.25,17.06-.18Z" transform="translate(0 0)"/><path class="cls-3" d="M102.4,512a59.73,59.73,0,1,1,59.73-59.73A59.8,59.8,0,0,1,102.4,512m0-102.4a42.67,42.67,0,1,0,42.67,42.67A42.72,42.72,0,0,0,102.4,409.6" transform="translate(0 0)"/><path class="cls-3" d="M111.11,477.87H93.68A16.91,16.91,0,0,1,76.8,461V443.55a16.91,16.91,0,0,1,16.89-16.88h17.43A16.91,16.91,0,0,1,128,443.55V461a16.91,16.91,0,0,1-16.89,16.88m-.18-34.32-17.24.18L93.87,461l17.06-.18Z" transform="translate(0 0)"/><path class="cls-3" d="M503.46,409.6H469.33a8.52,8.52,0,0,1-8.53-8.53V366.93a8.52,8.52,0,0,1,8.53-8.53h33.28a8.53,8.53,0,0,1,8.36,6.84,51.73,51.73,0,0,1,1,10.22v25.61a8.53,8.53,0,0,1-8.54,8.53m-25.59-17.06h17.06V375.46H477.87Z" transform="translate(0 0)"/><path class="cls-3" d="M42.67,512H8.53a8.54,8.54,0,0,1,0-17.07H42.67a8.54,8.54,0,0,1,0,17.07" transform="translate(0 0)"/><path class="cls-3" d="M503.46,512H307.2a8.54,8.54,0,0,1,0-17.07H503.46a8.54,8.54,0,1,1,0,17.07" transform="translate(0 0)"/><path class="cls-3" d="M273.07,512H238.93a8.54,8.54,0,0,1,0-17.07h34.14a8.54,8.54,0,0,1,0,17.07" transform="translate(0 0)"/><path class="cls-3" d="M204.8,512H102.4a8.54,8.54,0,0,1,0-17.07H204.8a8.54,8.54,0,0,1,0,17.07" transform="translate(0 0)"/><path class="cls-3" d="M503.46,443.73H457.82a8.55,8.55,0,0,1-8.05-5.68,42.58,42.58,0,0,0-80.34,0,8.56,8.56,0,0,1-8.05,5.68H150.62a8.55,8.55,0,0,1-8.05-5.68,42.58,42.58,0,0,0-80.34,0,8.56,8.56,0,0,1-8,5.68H8.54A8.53,8.53,0,0,1,0,435.2V196.29A42.74,42.74,0,0,1,42.69,153.6H351.23a42.73,42.73,0,0,1,40.3,28.6l49.72,142.07H460.8a51.25,51.25,0,0,1,51.2,51.2V435.2a8.53,8.53,0,0,1-8.54,8.53m-39.94-17.06h31.41v-51.2a34.16,34.16,0,0,0-34.13-34.14H435.2a8.54,8.54,0,0,1-8.06-5.71L375.41,187.83a25.63,25.63,0,0,0-24.18-17.16H42.69a25.65,25.65,0,0,0-25.62,25.62V426.67H48.48a59.66,59.66,0,0,1,107.84,0H355.68a59.66,59.66,0,0,1,107.84,0" transform="translate(0 0)"/><path class="cls-3" d="M315.73,273.07a8.53,8.53,0,0,1-8.53-8.53V247.46a8.54,8.54,0,0,1,17.07,0v17.08a8.53,8.53,0,0,1-8.54,8.53" transform="translate(0 0)"/><path class="cls-3" d="M341.33,273.07h-25.6a8.54,8.54,0,0,1,0-17.07h25.6a8.54,8.54,0,1,1,0,17.07" transform="translate(0 0)"/><path class="cls-3" d="M110.93,375.46a8.43,8.43,0,0,1-3.92-.95,8.53,8.53,0,0,1-4.4-9.42l14.75-66.42H93.87a8.54,8.54,0,0,1-6.32-14.28l85.34-93.87a8.53,8.53,0,0,1,14.64,7.59l-14.76,66.43h23.5a8.53,8.53,0,0,1,6.31,14.27l-85.33,93.87a8.54,8.54,0,0,1-6.32,2.78m2.23-93.86H128A8.52,8.52,0,0,1,136.33,292l-10.1,45.44L177,281.6H162.13a8.53,8.53,0,0,1-8.32-10.39l10.09-45.42Z" transform="translate(0 0)"/><path class="cls-3" d="M423.25,307.2H281.6a8.52,8.52,0,0,1-8.53-8.53V213.33a8.52,8.52,0,0,1,8.53-8.53H393.39a8.52,8.52,0,0,1,8.05,5.72l29.87,85.33a8.53,8.53,0,0,1-8.06,11.35M290.13,290.13H411.22l-23.89-68.26h-97.2Z" transform="translate(0 0)"/><path class="cls-3" d="M332.8,85.33H298.67a42.67,42.67,0,1,1,0-85.33H332.8a8.52,8.52,0,0,1,8.53,8.53V76.8a8.52,8.52,0,0,1-8.53,8.53M298.67,17.07a25.6,25.6,0,0,0,0,51.2h25.6V17.07Z" transform="translate(0 0)"/><path class="cls-3" d="M375.46,34.13H332.8a8.53,8.53,0,0,1,0-17.06h42.66a8.53,8.53,0,1,1,0,17.06" transform="translate(0 0)"/><path class="cls-3" d="M375.46,68.27H332.8a8.54,8.54,0,0,1,0-17.07h42.66a8.54,8.54,0,1,1,0,17.07" transform="translate(0 0)"/><path class="cls-3" d="M269.27,68.27H230.4a8.53,8.53,0,0,1-8.53-8.54V25.6a8.52,8.52,0,0,1,8.53-8.53h38.87a8.52,8.52,0,0,1,7.38,12.81,24.65,24.65,0,0,0,0,25.57,8.53,8.53,0,0,1-7.37,12.82M238.93,51.2h18a41.37,41.37,0,0,1,0-17.07h-18Z" transform="translate(0 0)"/><path class="cls-3" d="M238.93,170.67a8.53,8.53,0,0,1-8.53-8.54V119.47a17.09,17.09,0,0,0-17.07-17.07H34.13a34.14,34.14,0,0,1,0-68.27H230.4a8.54,8.54,0,0,1,0,17.07H34.13a17.07,17.07,0,0,0,0,34.13h179.2a34.17,34.17,0,0,1,34.14,34.14v42.66a8.54,8.54,0,0,1-8.54,8.54" transform="translate(0 0)"/></g></svg>