<svg xmlns="http://www.w3.org/2000/svg" width="38" height="50.03" viewBox="0 0 38 50.03">
  <defs>
    <style>
      .cls-1 {
        fill: #0fc5d3;
        fill-rule: evenodd;
      }
    </style>
  </defs>
  <path id="icon" class="cls-1" d="M686.445,2143.45c2.345-.12,4.7-0.08,7.049-0.04a13.307,13.307,0,0,1,.294,3.77,15.22,15.22,0,0,1,7.978,4.33,11.031,11.031,0,0,1,2.632,5.57c0.8,0.06,1.605.17,2.408,0.29a51.991,51.991,0,0,1,0,5.68,23.643,23.643,0,0,1-5.047.23,12.964,12.964,0,0,1-6.032,12.3c2.11,0.98,4.409,1.62,6.305,2.98a15.064,15.064,0,0,1,6.457,9.87,20.15,20.15,0,0,1,.476,4.78c-0.547.05-1.437,0.38-1.56-.39-0.385-1.4-.434-2.87-0.736-4.29a13.379,13.379,0,0,0-6.375-9.01c-2.4-1.38-5.135-2.1-7.582-3.39-0.017-.22-0.052-0.68-0.073-0.91a17.133,17.133,0,0,0,4-2.51,11.252,11.252,0,0,0,3.228-9.42q-9.856-.03-19.715,0a11.3,11.3,0,0,0,3.74,9.85c1.107,0.98,2.635,1.36,3.736,2.35a2.416,2.416,0,0,1-1,1.04c-2.071.91-4.244,1.62-6.26,2.65a13.573,13.573,0,0,0-6.782,8.46c-0.4,1.75-.61,3.54-0.887,5.31-0.192.11-.574,0.34-0.767,0.46-0.235-.1-0.7-0.29-0.933-0.39,0.242-3.31.666-6.77,2.479-9.68a16.118,16.118,0,0,1,3.88-4.3c2.036-1.62,4.6-2.4,6.971-3.45a12.7,12.7,0,0,1-5.951-12.3c-1.732-.1-3.534.26-5.2-0.33-0.035-1.83-.035-3.67,0-5.5a12.029,12.029,0,0,1,2.471-.37,11.391,11.391,0,0,1,6.522-8.45c1.252-.72,2.748-0.94,4.028-1.57a32.213,32.213,0,0,0,.252-3.62m1.686,1.61c-0.049,3.83.007,7.66-.024,11.49a1.946,1.946,0,0,1-.663,1.2c-0.259-.1-0.778-0.31-1.037-0.41-0.193-2.81.143-5.64-.207-8.43a13.669,13.669,0,0,0-6.036,3.14,10.68,10.68,0,0,0-2.93,6.62c-0.764.14-1.535,0.26-2.3,0.36,0,0.85,0,1.69,0,2.54,1.682,0.08,3.361-.17,5.04-0.02,8.374,0.14,16.744-.08,25.118-0.06q-0.006-1.245.021-2.49l-2.219-.27a14.738,14.738,0,0,0-1.665-5.05,12.28,12.28,0,0,0-7.448-4.79c-0.06,2.77.007,5.55-.035,8.32-0.2.13-.586,0.38-0.782,0.5-0.224-.1-0.68-0.31-0.908-0.41-0.154-4.07-.038-8.15-0.059-12.22-1.294-.02-2.584-0.01-3.87-0.02h0Zm-1.984,35.46c0.246-2.31,3.1-3.82,5.324-2.91a3.443,3.443,0,0,1,2.4,3.58c0.021,0.91-.666,1.61-1.076,2.38,0.421,3.14,1.3,6.22,1.753,9.36-0.456.12-1.045,0.71-1.476,0.25a2.621,2.621,0,0,1-.564-1.5c-0.463-2.74-1.164-5.43-1.577-8.17-0.288-1.1,1.321-1.57,1.181-2.65a2.113,2.113,0,0,0-2.934-1.65c-0.9.39-1.721,1.59-.992,2.45,0.344,0.61,1.227,1.08.985,1.87-0.757,3.27-1.111,6.64-2.145,9.84-0.449-.06-0.894-0.12-1.332-0.19-0.049-3.24,1.258-6.35,1.556-9.56-0.494-.98-1.339-1.93-1.1-3.1h0Z" transform="translate(-671 -2143.38)"/>
</svg>
