<svg xmlns="http://www.w3.org/2000/svg" width="94" height="100" viewBox="0 0 94 100">
  <defs>
    <style>
      .cls-1 {
        fill: #0d1c25;
        fill-rule: evenodd;
      }
    </style>
  </defs>
  <path id="icon" class="cls-1" d="M1085.25,2687.3h2.43c-0.01,4.39,0,8.79,0,13.18q2.34-.015,4.68,0a14.515,14.515,0,0,1,6.54-11.11,13.743,13.743,0,0,1,16.37,1.34,13.976,13.976,0,0,1,4.62,9.76c1.6,0,3.19.01,4.79,0,0.02-4.39.01-8.78,0.01-13.17h2.39c-0.14,4.36.23,8.71-.05,13.07,8.69,0.25,17.38.03,26.07,0.11q0,31.62,0,63.23c-0.78-.01-1.55,0-2.32.01-0.3-4.31-.07-8.65-0.14-12.97v-25.16c0-2.96-.02-5.91.01-8.86q-44.505-.06-89.01-0.01v46.99c-0.83-.01-1.66-0.01-2.48-0.01q0.03-31.59-.01-63.19c8.7-.08,17.39-0.02,26.09-0.03,0-4.4-.01-8.79.01-13.18m13.23,5.46a12.354,12.354,0,0,0-3.65,7.72q11.28-.015,22.56,0a11.251,11.251,0,0,0-18.91-7.72m-36.82,10.15c-0.03,3.77-.02,7.54-0.01,11.31q44.475,0,88.95.01c0.07-3.78.04-7.56,0.02-11.34q-44.475.09-88.96,0.02h0Zm14.31,1.77c2.82-1.58,6.55,1.1,6.11,4.3-0.17,3.19-4.37,5.15-6.78,3a4.359,4.359,0,0,1,.67-7.3m0.49,2.44c-0.17.72-.74,1.53-0.22,2.24a1.741,1.741,0,0,0,3.04.29c0.74-.73.13-1.72-0.07-2.54a3.459,3.459,0,0,0-2.75.01h0Zm28.08-2.54a4.286,4.286,0,1,1-1.02,7.35c-2.49-1.85-1.9-6.28,1.02-7.35m0.34,2.49a3.7,3.7,0,0,0-.25,2.81c0.9,0.34,2.03.93,2.77-.03,1.22-1,.32-2.61-0.77-3.25-0.59.15-1.17,0.3-1.75,0.47h0Zm25.97-.66a4.269,4.269,0,0,1,6.09-1.4,6.982,6.982,0,0,1,1.72,2.15,6.158,6.158,0,0,1-.24,3.07,4.255,4.255,0,0,1-5.48,2.33,4.34,4.34,0,0,1-2.09-6.15m2.41,0.66c-0.51.85-.88,2.14,0.08,2.84a1.775,1.775,0,0,0,2.98-1.36c0.08-1.02-.85-1.47-1.53-1.95-0.51.15-1.02,0.31-1.53,0.47h0Zm-64.96,22.5a10.547,10.547,0,0,1,19.32.57,14.9,14.9,0,0,1,.79,6.12q-0.015,14.64.01,29.29a35.521,35.521,0,0,1,7.25-1.27c-0.06-10.06-.01-20.13-0.03-30.19a10.625,10.625,0,0,1,6.03-9.58,10.892,10.892,0,0,1,6.42-.86,10.612,10.612,0,0,1,7.95,6.73c0.93,2.26.67,4.74,0.7,7.12,0.01,9.89-.02,19.78.01,29.68a30.96,30.96,0,0,0,7.21-1.32c-0.03-10.44,0-20.88-.01-31.32a10.751,10.751,0,0,1,4.83-9.35,10.57,10.57,0,0,1,11.15-.2,10.717,10.717,0,0,1,5.14,9.11c0.03,10.76,0,21.52.01,32.28a30.008,30.008,0,0,0,8.02.77q-0.015,1.23,0,2.49a42.328,42.328,0,0,1-6.85-.47c-2.49-.44-4.84-1.46-7.32-1.9a28.868,28.868,0,0,0-13.51.72,31.521,31.521,0,0,1-20.04.04,29.028,29.028,0,0,0-14.07-.68c-2.56.5-4.97,1.58-7.56,1.92a32.344,32.344,0,0,1-14.34-1.04,30.77,30.77,0,0,0-10.25-1.46c0.23-.73-0.51-2.17.52-2.36a36.562,36.562,0,0,1,7.67.63c-0.18-6.62.04-13.24-.08-19.86-0.1-2.84.22-5.69,0.01-8.53-0.08-2.39-.07-4.9,1.02-7.08m2.54,0.46a9.705,9.705,0,0,0-1.15,5.35c0.02,10.12,0,20.24.01,30.36a29.169,29.169,0,0,0,16.25.54c-0.01-10.72.02-21.45-.01-32.17a8.214,8.214,0,0,0-5.66-7.78,8.035,8.035,0,0,0-9.44,3.7m56.15,1.07a10.151,10.151,0,0,0-.61,4.28c0.03,9.91-.01,19.82.01,29.73a34.916,34.916,0,0,1,16.26.52c-0.06-10.51,0-21.02-.03-31.54a8.142,8.142,0,0,0-5.87-7.81c-3.84-1.36-8.3,1.08-9.76,4.82m-28.86,2.59c0,10.25-.07,20.51.04,30.77,5.57-.32,10.58,2.8,16.12,2.72q0.03-16.545,0-33.07a8.2,8.2,0,0,0-6.17-7.91c-4.66-1.42-9.99,2.55-9.99,7.49h0Zm-38.95,37.61a32.2,32.2,0,0,1,7.33.51c2.81,0.56,5.5,1.71,8.38,2.04a29.639,29.639,0,0,0,12.66-1.15,32.477,32.477,0,0,1,13.82-1.2c3.62,0.43,6.97,2.11,10.61,2.41a30.022,30.022,0,0,0,12.42-1.29,31.4,31.4,0,0,1,19.2.24,28.951,28.951,0,0,0,9.49,1.19c0,0.79.01,1.59,0.02,2.39a29.964,29.964,0,0,1-11.83-1.7,28.889,28.889,0,0,0-16.25.26,31.387,31.387,0,0,1-19.08.12,29.041,29.041,0,0,0-18.29.12,31.823,31.823,0,0,1-12.91,1.07c-3.84-.36-7.38-2.21-11.24-2.43-1.45-.11-2.9-0.22-4.35-0.24,0.01-.79.02-1.57,0.02-2.34h0Zm-0.03,5.54c0.83-.06,1.66-0.12,2.49-0.19,0,2.69.01,5.38,0,8.07,25.89,0.07,51.79.01,77.68,0.03,3.82-.02,7.64.05,11.46-0.05-0.25-2.62-.11-5.23-0.16-7.85,0.82-.09,1.64-0.18,2.47-0.25,0.03,3.54-.01,7.09.03,10.64q-46.98,0-93.94-.02c-0.02-3.46.03-6.92-.03-10.38h0Z" transform="translate(-1059.13 -2687.28)"/>
</svg>
