<svg xmlns="http://www.w3.org/2000/svg" width="105" height="100" viewBox="0 0 105 100">
  <defs>
    <style>
      .cls-1 {
        fill: #0d1c25;
        fill-rule: evenodd;
      }
    </style>
  </defs>
  <path id="icon-17" class="cls-1" d="M1390.02,2695.08c2.74-6.66,11.1-10.3,17.81-7.6a14.407,14.407,0,0,1,5.37,3.77c2.1,0.15,4.39.3,6.06,1.76a7.559,7.559,0,0,1,1.42,9.74,7.642,7.642,0,0,1-6.85,3.6,13.783,13.783,0,0,1-8.77,5.91,11.837,11.837,0,0,1-7.89-1.27,11.41,11.41,0,0,1-6.29,3.66,11.526,11.526,0,0,1-6.38-.71,8.925,8.925,0,0,1-3.42,2.47,7.646,7.646,0,0,1-8.08-1.61,7.95,7.95,0,0,1,6.99-13.37,10.892,10.892,0,0,1,10.03-6.35m2.45,0.22a9.72,9.72,0,0,1-1.21,2.19,8.554,8.554,0,0,0-6.81,1.8c-1.55,1.12-2.23,2.94-2.92,4.65-1.73-.21-3.56-0.69-5.18.22-3.36,1.33-4.35,6.19-1.93,8.81a5.389,5.389,0,0,0,8.23-.53c0.44-.52.91-1.5,1.76-1.09a9.247,9.247,0,0,0,6.45.96c2.37-.48,4.15-2.26,5.57-4.1,1.39,0.34,2.55,1.25,3.93,1.65,4.83,1.37,10.01-1.58,12.25-5.89,1.45-.03,3.06.23,4.34-0.66a5.394,5.394,0,0,0,1.12-8.31c-1.59-1.55-3.95-1.34-5.97-1.31a10.832,10.832,0,0,0-3.83-3.51c-5.46-3.09-13.11-.48-15.8,5.12h0Zm-31.28,24.78a13.587,13.587,0,0,1,4.41-.34h29.58a2.44,2.44,0,0,1,1.73.4,36.192,36.192,0,0,1,.43,5.99,170.7,170.7,0,0,0,5.84,34.98,22.436,22.436,0,0,0,1.27-4.62,144.983,144.983,0,0,0,3.12-22.43,24.1,24.1,0,0,1,.37-4.88c0.25-.08.75-0.25,0.99-0.33,4.1,0,8.19.01,12.29-.01,4.86,0.01,9.71.02,14.58,0a14.8,14.8,0,0,1,2.96.31c0.39,3.87.39,7.77,0.86,11.63a152.343,152.343,0,0,0,10.39,40.95c0.52,1.49,1.64,2.87,1.42,4.53a12.285,12.285,0,0,1-2.62.33h-99.73a13.694,13.694,0,0,1-2.57-.33c-0.23-1.64.92-2.97,1.41-4.45a174.9,174.9,0,0,0,13.27-61.73m-11.74,64.18q49.56,0.045,99.14.01a151.151,151.151,0,0,1-11.91-53.11q-13.365.03-26.73,0a139.987,139.987,0,0,1-2.75,23.36,147.074,147.074,0,0,1-7.73,26.42,8.445,8.445,0,0,1-1.31,2.55,15.091,15.091,0,0,1-1.51-.02,3.192,3.192,0,0,1,.11-2.05,121.3,121.3,0,0,0,4.41-12.14c0.31-1.33,1.1-2.66.84-4.03a170.3,170.3,0,0,1-7.13-43.21q-15.75,0-31.5-.01a179.53,179.53,0,0,1-13.93,62.23h0Z" transform="translate(-1346.47 -2686.59)"/>
</svg>
