<?xml version="1.0" encoding="UTF-8"?>
<!DOCTYPE svg PUBLIC "-//W3C//DTD SVG 1.1//EN" "http://www.w3.org/Graphics/SVG/1.1/DTD/svg11.dtd">
<!-- Creator: CorelDRAW 2019 (64-Bit Evaluation Version) -->
<svg xmlns="http://www.w3.org/2000/svg" xml:space="preserve" width="29.9833mm" height="30mm" version="1.1" style="shape-rendering:geometricPrecision; text-rendering:geometricPrecision; image-rendering:optimizeQuality; fill-rule:evenodd; clip-rule:evenodd"
viewBox="0 0 487.33 487.6"
 xmlns:xlink="http://www.w3.org/1999/xlink">
 <defs>
  <style type="text/css">
   <![CDATA[
    .fil0 {fill:#159e49}
   ]]>
  </style>
 </defs>
 <g id="Layer_x0020_1">
  <metadata id="CorelCorpID_0Corel-Layer"/>
  <path class="fil0" d="M187.02 170.83c-20.84,-0.06 -41.69,0.01 -62.54,-0 -5.13,-0 -10.27,0.04 -15.4,-0.01 -8.25,-0.08 -6.9,0.07 -11.25,4.49 -5.41,5.51 -10.29,10.33 -15.74,15.81 -21.18,21.28 -41.96,41.78 -63.07,63.14 -23.15,23.42 -18.67,12.3 -18.67,43.98 0,21.04 0,42.07 0,63.11 0,42.05 -0.39,84.26 0.01,126.27l385.47 -0.02c2.26,-3.69 13.52,-14.61 17.31,-19.1l35.2 -38.43c11.91,-11.7 27.41,-30.75 39.71,-42.8 9.62,-9.42 9.32,-9.97 9.26,-18.64 -0.18,-24.51 -0.01,-49.09 -0.01,-73.63 0,-97.8 -1.34,-196.56 0.04,-294.21 -5.03,-1.54 -48.91,-0.32 -57.84,-0.26l-131.87 0.72c-13.45,0.04 -8.7,-0.99 -27.15,17.42l-73.16 73.28c-12.02,12.06 -10.31,8.27 -10.29,19.4 0.04,19.81 0.04,39.67 -0.01,59.49zm3.28 202.98l12.89 0.06 0.09 -15.98 -12.81 -0.26 -0.17 16.18zm37.21 -260.18l16.39 0.26 -0.04 -12.63 -16.23 -0.26 -0.12 12.63zm-137.9 -32.3l-16.1 0.16 -0.14 16.25 16.13 0.02 0.13 16.16 16.3 0.1 -0.02 -16.19 16.2 -0.1 -0.02 -16.24 -16.14 -0.03 -0.09 -16.17 -16.18 -0.06 -0.08 16.12zm297.04 58.34c0,43.71 -0.63,91.8 0.11,134.97 28.71,-28.38 62.3,-66.53 88.96,-96.92 2.34,-2.66 3.47,-2.99 3.47,-8.17l0.02 -150.58c-3.76,2 -80.41,81.33 -88,88.91 -2.54,2.54 -4.36,3.1 -4.6,7.46 -0.42,7.49 0.04,16.65 0.04,24.33zm-374.93 296.09l0.05 40.45 178.37 0c1.07,-20.21 0.16,-64.51 0.17,-86.01l12.35 -0.11c1.94,5.54 0.39,73.92 0.66,85.83 48.91,1.24 105.13,0.29 154.98,0.28l18.53 -0.06 0.08 -70.41 13.02 -0.08 0.04 59.06 39.5 -42.7c1.6,-1.78 3.25,-3.03 4.85,-4.83 1.82,-2.04 3.1,-3.6 4.85,-5.69l10.43 -10.62c3.71,-3.79 6.33,-7.05 9.56,-10.64 15.74,-17.44 16.77,-12.2 16.77,-57.21l1.6 -140.52 -85.63 91.57c-3.2,3.29 -2.01,16.17 -2.01,23.87 0,13.7 0.64,76.09 -0.28,82.25l-12.42 -0.02 -0.3 -89.28 -173.53 -0.05 -0.1 40.62 -12.99 -0.11 -0.03 -40.52 -157.45 0.01 -0.01 -13.08c50.07,0.76 106.73,-0.19 157.4,0.08l0.08 -105.65 -69.84 0.01c-15.22,0.01 -8.85,-1.63 -27.5,16.5l-70.73 70.89c-13.64,13.68 -10.53,6.84 -10.5,33.49l0.01 132.68zm191.58 -146.67l173.58 0.33 0.03 -175.4 -116.96 -0.07 0.13 -13.01 123.66 0.02c3.73,-7 82.43,-85.53 84.82,-90.81l-171.74 0.85c-6.4,0.87 -86.1,86 -95.95,95.85 -3.76,3.71 -2.47,6.52 -2.46,13.38 0.05,54.51 4.31,114.52 4.9,168.86z"/>
 </g>
</svg>
