<?xml version="1.0" encoding="UTF-8"?>
<svg xmlns="http://www.w3.org/2000/svg" xml:space="preserve" width="30.3834mm" height="29.9951mm" version="1.1" style="shape-rendering:geometricPrecision; text-rendering:geometricPrecision; image-rendering:optimizeQuality; fill-rule:evenodd; clip-rule:evenodd"
viewBox="0 0 317.19 313.14"
 xmlns:xlink="http://www.w3.org/1999/xlink">
 <defs>
  <style type="text/css">
   <![CDATA[
    .fil0 {fill:#159e49}
   ]]>
  </style>
 </defs>
 <g id="Layer_x0020_1">
  <path class="fil0" d="M137.02 35.67l4.54 6.56 11.7 -18.74 0.1 32.52c-0.69,2.75 -72.14,42.26 -85.79,50.46 -23,13.83 -20.32,7.54 -20.32,47.14l0.1 69.26 9.16 -3.5 0.19 -86.41 97.49 51.87 -0.83 116.31 -92.08 -50.12c3.82,-4.09 46.62,-26.02 50.3,-30.13 -1.87,-3.78 -4.48,-1.7 -5.64,-5.32l-89.9 51.51 12.15 -17.54 -6.1 -2.87 -22.08 32.42 46.35 -3.44 0.7 -8.12 -28.08 5.04 26.54 -12.91c13.92,-7.84 4.11,-7.76 40.8,12.56 22.62,12.53 45.16,26.47 67.42,39.03 5.74,3.24 11.22,1.9 16.34,-0.97l81.4 -47.24 -7.19 -5.87 -56.54 32.25c-4.26,2.51 -19.01,9.44 -23.13,10.71l-0.27 -115.31 101.33 -57.48 1.46 108.7c-12.45,-6.2 -38.24,-22.93 -48.93,-27.85 -1.99,1.84 -3.53,2.97 -4.55,6.25 4.63,1.63 14.79,8.16 19.57,10.92l64.46 37.7 -19.36 -2.79 0.57 11.27 38.28 -1.94 -17.38 -35.44 -9.15 6.53 11.98 15.59 -27.52 -15.4c-0.67,-16.76 1.36,-113.06 -1.08,-119.42 -2.06,-5.37 -5.77,-7.1 -10.32,-9.68l-63.27 -36.55c-3.74,-2.19 -9.48,-5.97 -13.29,-7.53 -0.48,0.46 -0.52,0.44 -1.11,1.22l-3.09 5.79c5.07,1.78 45.28,25.82 53.85,30.64 5.28,2.97 20.37,12.36 24.78,15.51 -2.25,2.43 -97.41,58.98 -97.92,59 -5.83,0.25 -87.53,-48.23 -103.22,-55.08 -0.11,-0.06 -1.29,-0.8 -1.37,-0.85l-1.21 -1.02c-0.08,-0.07 -0.26,-0.24 -0.38,-0.37l96.34 -57.01 -0.43 56.86 8.11 0.33 0.08 -99.73 10.51 17.09 5.73 -4.75 -5.28 -8.73 -14.89 -26.61 -20.63 35.67z"/>
 </g>
</svg>
